<?xml version="1.0" standalone="no"?>
<!DOCTYPE svg PUBLIC "-//W3C//DTD SVG 1.1//EN" "http://www.w3.org/Graphics/SVG/1.1/DTD/svg11.dtd" >
<svg xmlns="http://www.w3.org/2000/svg">
<metadata>Generated by IcoMoon</metadata>
<defs>
<font id="icomoon" horiz-adv-x="1024">
<font-face units-per-em="1024" ascent="960" descent="-64" />
<missing-glyph horiz-adv-x="1024" />
<glyph unicode="&#x20;" horiz-adv-x="512" d="" />
<glyph unicode="&#xe900;" glyph-name="logo3" horiz-adv-x="1053" d="M921.093 959.554c-235.425 6.857-386.7-67.562-393.915-71.147-0.157 0.015-0.36 0.028-0.565 0.036l-0.021 0.001c0 0-392.872 0.697-450.099 0.697h-0.587c-21.252-1.028-39.090-7.486-51.747-19.034s-19.404-28.057-19.4-46.099c-0.128-19.009-1.465-139.937-2.531-261.925-1.064-121.824-1.926-243.236-0.99-268.967 0-16.429 8.074-32.813 20.831-45.952s30.873-23.055 51.93-23.581l0.183-0.037h0.183c28.545 0.204 358.066-1.163 377.962-1.247l1.247-144.312c-16.299-0.151-144.545-1.347-183.406-1.76h-0.513l-0.477-0.037c-9.964-0.935-19.581-5.349-27.432-12.506s-13.931-17.671-14.083-30.073c-0.187-16.089-0.179-37.421 0.697-54.938 0-13.013 6.745-23.814 15.146-30.916s18.555-11.37 29.266-10.782c29.758-0.366 251.33 0.325 252.94 0.33 0.12-0.004 0.262-0.007 0.403-0.007s0.283 0.003 0.424 0.008l-0.020-0.001c0 0 0.11 0 0.11 0 0.194-0.001 223.894-0.698 253.747-0.33 10.71-0.588 20.864 3.68 29.266 10.782 8.382 7.085 15.114 17.871 15.146 30.843 0.879 17.53 0.884 38.9 0.697 55.011-0.151 12.402-6.232 22.916-14.083 30.073s-17.468 11.571-27.432 12.506l-0.477 0.037h-0.513c-38.862 0.414-167.107 1.609-183.406 1.76l1.247 144.312c19.896 0.084 349.417 1.451 377.962 1.247h0.183l0.183 0.037c21.058 0.526 39.174 10.442 51.93 23.581s20.831 29.524 20.831 45.952c0.935 25.73 0.074 147.143-0.99 268.967-1.065 121.989-2.403 242.917-2.53 261.925 0.003 18.042-6.744 34.551-19.401 46.099s-30.495 18.005-51.747 19.034h-0.587c-26.043 0-37.324 0.428-44.119 0.807-0.043 11.11-0.079 25.313-0.11 33.263-0.032 8.165-0.056 14.501-0.073 18.74-0.008 2.12 0.004 3.741 0 4.768-0.002 0.514 0.001 0.869 0 1.1 0 0.082 0 0.132 0 0.183 0 0.021 0 0.055 0 0.073 0 0.032-0.073 1.1-0.073 1.1s-23.105-1.14-23.105-1.174l11.919 11.552zM909.247 935.862c0.015-3.778 0.015-7.182 0.037-12.726 0.063-16.328 0.148-39.934 0.257-68.36 0.217-56.852 0.518-133.063 0.807-209.445 0.558-147.384 1.098-285.098 1.137-295.335-9.044-0.208-60.315-1.085-135.914-10.232-76.155-9.215-164.719-27.131-232.219-58.422-0.026 3.52-0.038 6.207-0.073 10.856-0.127 16.867-0.296 40.836-0.513 69.534-0.434 57.395-1.035 133.684-1.614 209.922-1.126 148.401-2.178 288.735-2.237 296.546 8.698 4.311 148.657 71.445 370.334 67.663zM933.048 878.834c0.001-0.004 0.037-0.11 0.037-0.11s-0.036-0.071-0.037-0.073c0 0.027 0 0.059 0 0.092s0 0.064 0 0.097v-0.005zM932.645 866.805c7.731-0.408 18.692-0.798 43.459-0.807 17.251-0.835 29.498-5.867 37.297-12.983s11.848-16.425 11.846-29.009v-0.073c0.13-19.364 1.465-140.082 2.531-262.072s1.804-246.376 0.99-268.343v-0.403c0-8.162-5.103-20.34-14.303-29.816s-21.832-16.225-35.904-16.577c-32.068 0.221-389.257-1.32-389.257-1.32l-11.406-0.073-1.687-190.264 11.552-0.11c0 0 152.058-1.425 194.115-1.87 4.084-0.403 9.813-2.803 13.899-6.528 4.108-3.745 6.503-8.19 6.565-13.239 0.186-16.018 0.193-37.403-0.66-54.021l-0.037-0.293v-0.33c0-4.991-2.599-9.577-6.931-13.239s-10.268-5.507-13.056-5.354l-0.404 0.037h-0.403c-26.676-0.349-254.261 0.33-254.261 0.33-0.005 0-0.012 0-0.018 0s-0.013 0-0.019 0h0.001c0 0-227.585-0.679-254.261-0.33h-0.403l-0.403-0.037c-2.788-0.153-8.724 1.692-13.056 5.354s-6.931 8.248-6.931 13.239v0.33l-0.037 0.293c-0.853 16.629-0.846 38.036-0.66 54.057 0.072 5.035 2.466 9.466 6.565 13.203 4.086 3.725 9.816 6.125 13.9 6.528 42.057 0.446 194.115 1.87 194.115 1.87l11.552 0.11-1.687 190.264-11.406 0.073c0 0-357.19 1.542-389.257 1.32-14.072 0.352-26.704 7.101-35.904 16.577s-14.303 21.654-14.303 29.816v0.403c-0.814 21.967-0.075 146.353 0.99 268.343s2.401 242.708 2.531 262.072v0.073c-0.002 12.584 4.047 21.893 11.846 29.009s20.046 12.148 37.297 12.983c56.403-0.002 420.78-0.665 438.73-0.697 0.078-10.273 1.121-146.753 2.237-293.795 0.579-76.237 1.18-152.563 1.614-209.958 0.217-28.697 0.387-52.667 0.513-69.534 0.063-8.433 0.113-15.072 0.147-19.657s0.037-8.008 0.037-7.188v-19.144l16.98 8.912c63.296 33.314 160.378 52.070 241.058 61.832s144.935 10.929 144.935 10.929l11.406 0.183-0.037 11.406c0 0-0.595 153.353-1.174 306.117-0.289 76.382-0.59 152.629-0.807 209.482-0.019 4.959-0.019 7.268-0.037 11.919zM829.151 813.702c-43.256 3.708-99.185-6.522-145.119-17.347s-81.673-22.518-81.673-22.518c-4.661-1.566-7.958-5.895-7.958-10.994 0-1.301 0.215-2.553 0.611-3.72l-0.024 0.082c1.569-4.655 5.895-7.947 10.991-7.947 1.289 0 2.529 0.211 3.687 0.6l-0.082-0.024c0 0 34.851 11.419 79.766 22.004s100.102 20.033 137.857 16.797c0.292-0.026 0.631-0.041 0.973-0.041 6.050 0 11.016 4.643 11.529 10.56l0.003 0.043c0.026 0.292 0.041 0.631 0.041 0.973 0 6.050-4.643 11.016-10.56 11.529l-0.043 0.003zM279.812 771.747c-1.163-0.032-2.269-0.231-3.309-0.573l0.082 0.023c-51.58-0.571-85.451-26.301-104.557-52.48-9.892-13.555-16.223-27.039-20.207-37.297-1.992-5.129-3.404-9.439-4.328-12.542-0.462-1.552-0.797-2.82-1.027-3.667-0.023-0.083-0.016-0.108-0.037-0.183l-0.22-0.403-0.33-1.54c-16.044-81.557 41.478-128.102 41.478-128.102l-1.54 1.43c29.805-33.817 29.412-64.986 29.412-64.986v-11.442l2.274-0.037c-1.652-6.29-4.714-12.064-1.137-25.378 2.561-9.534 8.639-19.765 19.474-26.882 8.959-5.885 22.72-8.087 37.811-9.205 1.792-1.195 3.995-1.907 6.364-1.907 0.006 0 0.012 0 0.018 0h-0.001c0.336 0 0.437 0.181 0.77 0.183 0.333-0.002 0.434-0.183 0.77-0.183 2.363 0.004 4.558 0.715 6.387 1.934l-0.042-0.027c15.111 1.114 28.88 3.315 37.847 9.205 10.835 7.117 16.913 17.348 19.474 26.882 3.577 13.314 0.515 19.088-1.137 25.378l2.2 0.037v11.442c0 0-0.393 31.169 29.413 64.986l-1.54-1.43c0 0 57.522 46.545 41.478 128.102l-0.293 1.54-0.22 0.44c-0.017 0.063-0.018 0.079-0.037 0.147-0.23 0.848-0.602 2.116-1.064 3.667-0.924 3.104-2.298 7.413-4.291 12.542-3.985 10.258-10.352 23.743-20.244 37.297-19.102 26.173-52.963 51.896-104.521 52.48 0.041-0.018 0.017-0.006-0.007 0.006l-0.066 0.030c-0.95 0.304-2.044 0.49-3.179 0.513h-0.012c-0.349 0.009-0.606-0.116-0.953-0.11-0.347-0.006-0.605 0.119-0.954 0.11zM280.766 748.532c46.786 0.983 73.394-20.657 90.034-43.459 8.35-11.441 13.899-23.177 17.347-32.053 1.724-4.438 2.959-8.156 3.741-10.782 0.391-1.313 0.674-2.319 0.88-3.081 0.076-0.281 0.121-0.504 0.183-0.733 13.63-69.831-33.080-105.254-33.080-105.254l-0.807-0.66-0.697-0.77c-26.928-30.553-31.672-56.26-33.153-68.874l-44.009-0.477c-0.188-0.012-0.339-0.025-0.49-0.041l0.050 0.004c-0.086 0.011-0.225 0.024-0.365 0.034l-0.039 0.002-44.045 0.477c-1.482 12.613-6.188 38.321-33.117 68.874l-0.697 0.77-0.844 0.66c0 0-46.673 35.423-33.043 105.254 0.062 0.229 0.107 0.452 0.183 0.733 0.207 0.761 0.49 1.768 0.88 3.081 0.782 2.626 1.98 6.344 3.704 10.782 3.448 8.876 8.997 20.612 17.347 32.053 16.641 22.801 43.249 44.442 90.035 43.459zM836.119 707.237c-43.256 3.708-99.185-6.522-145.119-17.347s-81.673-22.554-81.673-22.554c-4.672-1.559-7.981-5.894-7.981-11.001 0-1.285 0.209-2.521 0.596-3.676l-0.024 0.082c1.569-4.655 5.895-7.948 10.991-7.948 1.289 0 2.529 0.211 3.687 0.6l-0.082-0.024c0 0 34.851 11.419 79.766 22.004s100.102 20.033 137.857 16.797c0.292-0.026 0.631-0.041 0.973-0.041 6.050 0 11.016 4.643 11.529 10.56l0.003 0.043c0.026 0.293 0.041 0.633 0.041 0.977 0 6.037-4.623 10.995-10.522 11.526l-0.045 0.003zM831.755 610.748c-43.256 3.708-99.185-6.485-145.119-17.31s-81.673-22.554-81.673-22.554c-4.672-1.559-7.981-5.894-7.981-11.001 0-1.285 0.209-2.521 0.596-3.676l-0.024 0.082c1.559-4.672 5.894-7.981 11.001-7.981 1.285 0 2.521 0.209 3.676 0.596l-0.082-0.024c0 0 34.851 11.419 79.766 22.004s100.102 20.070 137.857 16.833c0.292-0.026 0.633-0.041 0.976-0.041 6.037 0 10.995 4.623 11.526 10.522l0.003 0.045c0.026 0.293 0.041 0.633 0.041 0.977 0 6.037-4.623 10.995-10.522 11.526l-0.045 0.003zM834.065 501.973c-43.256 3.708-99.185-6.522-145.119-17.347s-81.673-22.518-81.673-22.518c-4.678-1.556-7.991-5.894-7.991-11.005 0-1.297 0.214-2.545 0.607-3.71l-0.024 0.082c1.569-4.655 5.895-7.947 10.991-7.947 1.289 0 2.529 0.211 3.687 0.6l-0.082-0.024c0 0 34.851 11.419 79.766 22.004s100.102 20.033 137.857 16.797c0.292-0.026 0.631-0.041 0.973-0.041 6.050 0 11.016 4.643 11.529 10.56l0.003 0.043c0.026 0.293 0.041 0.633 0.041 0.976 0 6.037-4.623 10.995-10.522 11.526l-0.045 0.003zM239.617 459.688l40.451-0.477c0.226 0.008 0.43 0.022 0.632 0.040l-0.045-0.003c0.005 0 0.012 0 0.018 0s0.013 0 0.019 0h-0.001c0.223-0.019 0.491-0.033 0.761-0.037h0.009l40.525 0.477c0.778-2.854 3.241-10.321 0.88-19.107-1.391-5.177-3.867-9.654-9.828-13.569-5.822-3.824-16.036-6.962-32.236-7.115-16.201 0.153-26.415 3.291-32.236 7.115-5.961 3.916-8.438 8.392-9.829 13.569-2.36 8.786 0.102 16.253 0.88 19.107z" />
<glyph unicode="&#xe901;" glyph-name="logo_light_path" horiz-adv-x="1419" d="M706.854 782.557c-93.794 2.288-153.407-44.134-187.25-90.506-16.922-23.186-27.858-46.319-34.688-63.902-3.415-8.791-5.803-16.203-7.383-21.513-0.79-2.655-1.387-4.78-1.782-6.237-0.134-0.495-0.171-0.774-0.255-1.082-0.035-0.128-0.104-0.36-0.127-0.446 0-0.019 0-0.041 0-0.064s0-0.045 0-0.067v0.003c-0.012-0.041-0.086-0.139-0.064-0.064-0.154-0.469-0.308-1.067-0.428-1.678l-0.017-0.104c-27.48-139.688 70.648-218.628 70.648-218.628l-2.228 2.037c52.522-59.592 52-115.265 52-115.265 0-0.011 0-0.024 0-0.038 0-8.972 7.212-16.26 16.155-16.383l92.682-1.018c0.068-0.001 0.149-0.002 0.23-0.002 8.973 0 16.26 7.213 16.382 16.157v0.011c0.001 0.049 0.001 0.107 0.001 0.166 0 8.995-7.248 16.296-16.223 16.382h-0.008l-79.368 0.955c-1.855 19.149-8.867 65.815-57.219 120.675-0.659 0.742-1.367 1.409-2.129 2.010l-0.035 0.026c0 0-82.812 63.265-58.746 186.359 0.12 0.44 0.227 0.895 0.382 1.464 0.362 1.335 0.901 3.157 1.591 5.474 1.379 4.634 3.457 11.154 6.492 18.967 6.070 15.626 15.877 36.325 30.614 56.519 29.475 40.388 77.050 79.1 160.009 77.077 0.127-0.004 0.275-0.006 0.425-0.006 8.907 0 16.153 7.107 16.378 15.96v0.021c0.003 0.107 0.004 0.233 0.004 0.36 0 8.929-7.142 16.189-16.025 16.379h-0.018zM703.736 782.557c-8.873-0.226-15.98-7.472-15.98-16.378 0-0.127 0.001-0.253 0.004-0.38v0.019c0.226-8.873 7.472-15.979 16.378-15.979 0.127 0 0.253 0.001 0.38 0.004h-0.019c82.958 2.023 130.597-36.689 160.073-77.077 14.738-20.194 24.481-40.893 30.551-56.519 3.035-7.813 5.176-14.333 6.556-18.967 0.69-2.317 1.165-4.139 1.527-5.474 0.154-0.569 0.262-1.024 0.382-1.464 24.066-123.094-58.683-186.359-58.683-186.359-0.797-0.628-1.505-1.295-2.15-2.020l-0.015-0.017c-48.352-54.86-55.427-101.526-57.282-120.675l-79.368-0.955c-8.955-0.122-16.167-7.41-16.167-16.382 0-0.059 0-0.117 0.001-0.175v0.009c0.122-8.955 7.41-16.167 16.382-16.167 0.059 0 0.117 0 0.175 0.001h-0.009l92.67 1.018c8.982 0.088 16.23 7.389 16.23 16.384 0 0.013 0 0.026 0 0.039v-0.002c0 0-0.586 55.673 51.936 115.265l-2.164-2.037c0 0 98.064 78.94 70.585 218.628-0.137 0.715-0.292 1.314-0.478 1.898l0.032-0.116c-0.005 0.017 0.008 0.102 0 0.127-0.081 0.217-0.123 0.322-0.167 0.426l0.040-0.108c-0.085 0.313-0.161 0.695-0.318 1.273-0.395 1.457-0.992 3.582-1.782 6.237-1.58 5.31-3.968 12.722-7.383 21.513-6.83 17.582-17.766 40.716-34.688 63.902-33.843 46.372-93.456 92.794-187.25 90.506zM615.011 273.698c-6.973-0.087-12.889-4.517-15.175-10.706l-0.037-0.114c0 0-11.189-29.15-2.673-60.847 4.258-15.849 14.245-32.713 32.269-44.553s43.082-18.649 77.268-18.649c9.037 0.015 16.357 7.344 16.357 16.383 0 0.013 0 0.027 0 0.040v-0.002c-0.015 9.028-7.329 16.343-16.356 16.357h-0.001c-29.83 0-48.194 5.931-59.319 13.239s-15.984 16.032-18.585 25.713c-5.202 19.363 1.846 41.243 1.846 41.243 0.609 1.645 0.961 3.545 0.961 5.528 0 7.055-4.459 13.068-10.713 15.375l-0.114 0.037c-1.641 0.606-3.537 0.956-5.515 0.956-0.075 0-0.15-0.001-0.225-0.002h0.011zM794.178 273.698c-1.548-0.145-2.973-0.483-4.313-0.992l0.113 0.038c-6.397-2.328-10.883-8.356-10.883-15.432 0-1.975 0.349-3.868 0.99-5.622l-0.036 0.114c0 0 7.112-21.88 1.91-41.243-2.601-9.681-7.523-18.406-18.649-25.713s-29.426-13.239-59.256-13.239c-0.011 0-0.024 0-0.038 0-9.039 0-16.368-7.32-16.383-16.356v-0.001c0-0.011 0-0.025 0-0.038 0-9.048 7.335-16.383 16.383-16.383 0.013 0 0.026 0 0.040 0h-0.002c34.186 0 59.243 6.809 77.268 18.649s28.011 28.704 32.269 44.553c8.516 31.697-2.673 60.847-2.673 60.847-2.331 6.391-8.356 10.873-15.429 10.873-0.461 0-0.918-0.019-1.37-0.056l0.059 0.004zM140.957 959.314l16.835-16.399c0 0.047-16.523 16.487-16.523 16.486s-16.275-16.344-16.275-16.39c0-0.027 0-0.067 0-0.097 0-0.072 0-0.126 0-0.243-0.002-0.321 0.003-0.835 0-1.548-0.006-1.425-0.025-3.638-0.050-6.579-0.025-5.882-0.050-14.697-0.099-26.026-0.099-22.658-0.223-55.372-0.386-94.816-0.315-78.888-0.741-184.654-1.162-290.641-0.842-211.973-1.645-424.786-1.645-424.786-0.009-9.137 7.457-16.515 16.593-16.399 0 0 92.419 1.218 208.741-9.482s256.499-33.898 348.498-80.11c8.095-4.070 17.956-0.798 22.011 7.305 4.037 8.083 0.77 17.908-7.305 21.963-99.817 50.139-242.073 72.63-360.205 83.496-108.866 10.014-182.332 8.913-195.534 8.804 0.050 14.844 0.835 204.914 1.645 409.064 0.421 105.986 0.845 211.754 1.162 290.641 0.149 39.444 0.295 72.159 0.386 94.816 0.025 7.601 0.025 12.254 0.050 17.464 332.898 5.791 538.227-88.479 538.227-88.479 8.202-3.821 17.948-0.268 21.769 7.934s0.27 17.949-7.934 21.769c0 0-218.841 101.98-568.801 92.252zM1267.673 873.108c-0.005 0-0.010 0-0.016 0-9.037 0-16.365-7.317-16.383-16.349v-0.002c0-0.005 0-0.010 0-0.016 0-9.048 7.335-16.383 16.383-16.383 0.006 0 0.011 0 0.017 0h115.133l3.144-869.939h-611.033c-9.034-0.018-16.351-7.346-16.351-16.383 0-0.006 0-0.011 0-0.017v0.001c0-0.005 0-0.010 0-0.016 0-9.037 7.317-16.365 16.349-16.383h627.482c0.004 0 0.009 0 0.015 0 9.049 0 16.385 7.336 16.385 16.385 0 0.022 0 0.044 0 0.066v-0.003l-3.289 902.738c-0.047 9.014-7.364 16.303-16.385 16.303-0.005 0-0.010 0-0.015 0h-131.436zM16.389 873.108c-0.004 0-0.009 0-0.014 0-9.049 0-16.385-7.336-16.385-16.385 0-0.005 0-0.010 0-0.015v0.001l1.645-904.334c0.019-9.035 7.348-16.351 16.385-16.351 0.022 0 0.044 0 0.066 0l618.769 1.596c9.034 0.018 16.351 7.346 16.351 16.383 0 0.023 0 0.045 0 0.068v-0.004c-0.018 9.034-7.346 16.351-16.383 16.351-0.023 0-0.045 0-0.068 0l-602.418-1.596-1.5 871.535h103.959c0.005 0 0.010 0 0.016 0 9.048 0 16.383 7.335 16.383 16.383 0 0.006 0 0.011 0 0.017v-0.001c-0.018 9.034-7.346 16.351-16.383 16.351-0.006 0-0.011 0-0.017 0h-120.406zM1265.158 959.314c-349.96 9.728-568.849-92.252-568.849-92.252-8.184-3.839-11.712-13.58-7.885-21.769 3.821-8.202 13.567-11.754 21.769-7.934 0 0 205.299 94.281 538.227 88.479 0.021-5.21 0.017-9.862 0.050-17.464 0.099-22.657 0.223-55.373 0.386-94.816 0.315-78.887 0.741-184.655 1.162-290.641 0.81-204.15 1.538-394.22 1.595-409.064-13.233 0.109-86.693 1.207-195.534-8.804-118.132-10.866-260.388-33.357-360.205-83.496-8.056-4.072-11.301-13.893-7.256-21.963 4.054-8.074 13.88-11.342 21.963-7.305 91.999 46.212 232.176 69.411 348.498 80.11s208.741 9.482 208.741 9.482c9.155-0.144 16.651 7.243 16.641 16.399 0 0-0.852 212.814-1.694 424.786-0.421 105.986-0.845 211.753-1.162 290.641-0.149 39.444-0.295 72.158-0.386 94.816-0.050 11.329-0.074 20.144-0.099 26.026-0.012 2.941-0.050 5.154-0.050 6.579-0.002 0.468 0.001 0.717 0 1.016 0.003 0.178 0.003 0.355 0 0.532-0.001 0.114 0 0.168 0 0.243 0 0.030 0 0.069 0 0.097 0 0.047-15.661 16.798-15.661 16.799s-17.089-16.849-17.089-16.896z" />
<glyph unicode="&#xe902;" glyph-name="lightbulb_off" horiz-adv-x="704" d="M352.003 959.991c-205.896 0-352.234-167.077-351.994-352.474 0.116-88.558 32.999-169.337 87.118-231.076 51.299-58.499 100.578-153.797 104.878-184.437l0.116-150.357c0-6.3 1.879-12.44 5.36-17.68l49.019-73.679c5.94-8.92 15.94-14.28 26.64-14.28h157.697c10.72 0 20.72 5.36 26.639 14.28l49.019 73.679c3.48 5.24 5.34 11.4 5.36 17.68l0.135 150.357c4.52 31.439 53.979 126.378 104.878 184.437 54.219 61.859 87.118 142.817 87.118 231.556 0 194.396-157.597 351.994-351.994 351.994zM447.881 51.387l-34.179-51.379h-123.418l-34.179 51.379-0.019 12.62h191.797zM447.959 128.006h-191.938l-0.135 63.999h192.157zM568.757 418.641c-27.98-31.92-72.659-96.198-101.158-162.617h-231.177c-28.519 66.439-73.179 130.698-101.158 162.617-46.259 52.759-70.999 119.658-71.159 189.357-0.36 153.977 120.758 287.995 287.895 287.995 158.797 0 287.995-129.198 287.995-287.995 0-69.699-25.3-136.958-71.239-189.357zM352.003 831.993c-123.498 0-223.996-100.498-223.996-223.996 0-17.68 14.32-31.999 31.999-31.999s31.999 14.32 31.999 31.999c0 88.218 71.759 159.997 159.997 159.997 17.68 0 31.999 14.32 31.999 31.999s-14.32 31.999-31.999 31.999z" />
<glyph unicode="&#xe903;" glyph-name="lightbulb_on" horiz-adv-x="1279" d="M639.61 831.394c-123.528-0.159-223.623-100.255-223.783-223.767v-0.015c0.021-17.64 14.326-31.932 31.969-31.932s31.948 14.292 31.969 31.93v0.002c0.102 88.239 71.606 159.742 159.835 159.845h0.010c17.639 0.022 31.93 14.327 31.93 31.969s-14.291 31.947-31.928 31.969h-0.002zM639.61 959.27c-205.68 0-351.898-166.938-351.658-352.118 0-0.009 0-0.018 0-0.028 0-88.65 32.991-169.595 87.364-231.227l-0.329 0.38c51.27-58.383 100.463-153.671 104.778-184.261l0.116-150.234c0.005-6.58 2.013-12.689 5.446-17.754l-0.071 0.111 48.953-73.608c5.808-8.643 15.544-14.257 26.593-14.266h157.548c0.010 0 0.022 0 0.034 0 11.060 0 20.807 5.616 26.547 14.152l0.073 0.114 48.953 73.648c3.331 4.965 5.332 11.066 5.375 17.632v0.011l0.116 150.194c4.496 31.41 53.948 126.257 104.778 184.261 54.058 61.494 87.045 142.662 87.045 231.535 0 194.105-157.353 351.459-351.459 351.459-0.074 0-0.148 0-0.222 0h0.011zM735.397 51.532l-34.167-51.33h-123.32l-34.087 51.33v12.608h191.634zM735.513 128.077h-191.814l-0.116 63.938h191.933zM856.216 418.415c-27.973-31.869-72.569-96.087-101.042-162.422h-231.016c-28.532 66.356-73.129 130.553-101.102 162.422-44.125 50.166-71.051 116.394-71.051 188.91 0 0.101 0 0.201 0 0.302v-0.016c-0.36 153.851 120.643 287.721 287.6 287.721 158.666 0 287.721-129.055 287.721-287.721-0.004-72.628-26.975-138.955-71.446-189.516l0.276 0.32zM192.041 607.611c0 0 0 0 0 0 0 17.656-14.313 31.969-31.969 31.969 0 0 0 0 0 0h-127.876c-17.64-0.021-31.932-14.326-31.932-31.969s14.292-31.948 31.93-31.969h127.878c0 0 0 0 0 0 17.656 0 31.969 14.313 31.969 31.969v0zM1055.206 831.394c5.215 0.012 10.136 1.258 14.491 3.461l-0.185-0.085 127.876 63.938c10.549 5.371 17.649 16.148 17.649 28.584 0 17.657-14.314 31.972-31.972 31.972-5.208 0-10.126-1.245-14.471-3.455l0.182 0.084-127.876-63.938c-10.56-5.366-17.669-16.149-17.669-28.592 0-17.656 14.313-31.969 31.969-31.969 0.002 0 0.004 0 0.006 0v0zM1247.020 639.58h-127.876c-17.64-0.021-31.932-14.326-31.932-31.969s14.292-31.948 31.93-31.969h127.878c17.64 0.021 31.932 14.326 31.932 31.969s-14.292 31.948-31.93 31.969h-0.002zM238.32 891.955l-127.876 63.938c-4.163 2.126-9.081 3.371-14.289 3.371-17.657 0-31.972-14.314-31.972-31.972 0-12.436 7.1-23.213 17.468-28.5l0.181-0.084 127.876-63.938c4.17-2.118 9.091-3.364 14.302-3.377h0.004c0.002 0 0.004 0 0.006 0 17.656 0 31.969 14.313 31.969 31.969 0 12.443-7.109 23.226-17.487 28.508l-0.182 0.084zM1197.388 316.514l-127.876 63.938c-4.156 2.116-9.064 3.356-14.262 3.356-17.662 0-31.98-14.318-31.98-31.98 0-12.43 7.091-23.204 17.449-28.496l0.181-0.084 127.876-63.938c4.158-2.118 9.068-3.359 14.268-3.359 17.662 0 31.98 14.318 31.98 31.98 0 12.432-7.094 23.208-17.455 28.499l-0.181 0.084zM224.014 383.829c-5.215-0.012-10.136-1.258-14.491-3.461l0.185 0.085-127.876-63.938c-10.541-5.375-17.635-16.15-17.635-28.582 0-17.662 14.318-31.98 31.98-31.98 5.199 0 10.109 1.241 14.448 3.442l-0.182-0.084 127.876 63.938c10.582 5.359 17.709 16.153 17.709 28.612 0 17.656-14.313 31.969-31.969 31.969-0.016 0-0.032 0-0.049 0h0.003z" />
<glyph unicode="&#xe904;" glyph-name="dt_ideate" horiz-adv-x="819" d="M524.8 780.8c0 63.526-51.674 115.2-115.2 115.2s-115.2-51.674-115.2-115.2c0-38.387 19.443-74.394 51.2-95.68v-20.173c-14.592-2.97-25.6-15.898-25.6-31.347 0-11.392 6.016-21.325 14.989-27.008-1.357-3.546-2.189-7.36-2.189-11.392 0-17.651 14.349-32 32-32h89.6c17.651 0 32 14.349 32 32 0 4.032-0.832 7.846-2.189 11.392 8.973 5.683 14.989 15.616 14.989 27.008 0 15.462-11.008 28.378-25.6 31.347v20.173c31.757 21.286 51.2 57.293 51.2 95.68zM320 780.8c0 49.395 40.205 89.6 89.6 89.6s89.6-40.205 89.6-89.6c0-31.795-17.178-61.504-44.813-77.517l-6.387-3.699v-33.984h-25.6v79.155c14.861 5.299 25.6 19.379 25.6 36.045 0 21.171-17.229 38.4-38.4 38.4s-38.4-17.229-38.4-38.4c0-16.666 10.739-30.746 25.6-36.045v-79.155h-25.6v33.984l-6.387 3.699c-27.635 16.013-44.813 45.722-44.813 77.517zM396.8 780.8c0 7.066 5.734 12.8 12.8 12.8s12.8-5.734 12.8-12.8-5.734-12.8-12.8-12.8-12.8 5.734-12.8 12.8zM352 640h115.2c3.52 0 6.4-2.88 6.4-6.4s-2.88-6.4-6.4-6.4h-115.2c-3.52 0-6.4 2.88-6.4 6.4s2.88 6.4 6.4 6.4zM454.4 588.8h-89.6c-3.52 0-6.4 2.88-6.4 6.4s2.88 6.4 6.4 6.4h89.6c3.52 0 6.4-2.88 6.4-6.4s-2.88-6.4-6.4-6.4zM517.504 334.080c-5.824 14.771-19.853 24.32-35.725 24.32h-8.179v147.2c0 24.704-20.096 44.8-44.8 44.8s-44.8-20.096-44.8-44.8v-60.864c-4.544 1.933-9.357 3.264-14.464 3.264h-12.147c-20.608 0-37.389-16.781-37.389-37.389v-1.011h-13.811c-20.608 0-37.389-16.781-37.389-37.389v-1.011h-1.011c-20.608 0-37.389-16.781-37.389-37.389v-29.312c0-17.613 3.546-34.726 10.547-50.893l19.405-44.787c5.606-12.941 8.448-26.624 8.448-40.717v-1.702h25.6v1.715c0 17.613-3.546 34.726-10.547 50.893l-19.405 44.787c-3.328 7.68-5.568 15.654-6.925 23.782l48.128-48.128c7.488-7.488 17.318-11.226 27.149-11.226s19.661 3.738 27.149 11.226l2.202 2.202c6.067 6.067 9.549 13.683 10.701 21.568 0.512-0.026 1.011-0.141 1.523-0.141 6.899 0 13.837 1.894 19.955 5.773l0.781 0.486c1.83 1.216 3.405 2.701 4.966 4.198 5.786-5.235 12.864-9.152 20.851-11.149l17.165-4.301 10.586-31.731 24.269 8.102-15.014 45.069-30.797 7.706c-7.667 1.92-13.594 7.526-16.141 14.643l-0.128 0.384c-0.742 2.189-1.114 4.518-1.165 6.912l0.090 1.702c0.397 7.667 4.48 14.31 10.458 18.214 0.141 0.090 0.307 0.154 0.448 0.243 1.062 0.666 2.163 1.267 3.328 1.741 0.538 0.218 1.114 0.346 1.664 0.525 0.832 0.269 1.651 0.589 2.522 0.755 1.459 0.282 2.97 0.448 4.531 0.448h49.037c5.21 0 9.997-3.264 11.904-8.102l15.654-39.731c1.766-4.506 2.662-9.242 2.662-14.067v-2.816c0-5.926-1.395-11.878-4.045-17.178l-14.797-29.594c-4.416-8.819-6.758-18.726-6.758-28.595v-26.317h25.6v26.317c0 5.926 1.395 11.878 4.045 17.178l14.797 29.594c4.416 8.819 6.758 18.726 6.758 28.595v2.816c0 8.051-1.498 15.936-4.454 23.45l-15.642 39.731zM428.8 524.8c10.586 0 19.2-8.614 19.2-19.2v-147.2h-6.694l-31.706 57.062v90.138c0 10.586 8.614 19.2 19.2 19.2zM345.6 410.611c0 6.502 5.286 11.789 11.789 11.789h12.147c4.275 0 8.23-2.33 10.304-6.067l34.253-61.658c-0.026-0.013-0.051-0.026-0.090-0.038-0.435-0.179-0.819-0.435-1.242-0.627-2.112-0.96-4.147-2.061-6.093-3.315-0.858-0.55-1.677-1.139-2.509-1.741-1.459-1.075-2.842-2.227-4.173-3.443-0.768-0.704-1.562-1.37-2.291-2.125-1.677-1.754-3.238-3.597-4.646-5.594l-42.637 56.845c0 0-0.013 0.013-0.013 0.013l-2.432 3.251c-1.562 2.074-2.368 4.518-2.368 7.104v5.606zM344.051 259.75l-2.202-2.202c-5.005-5.005-13.094-5.005-18.099 0l-64.294 64.294c-2.227 2.227-3.456 5.197-3.456 8.346v3.622c0 6.502 5.286 11.789 11.789 11.789h3.622c3.149 0 6.118-1.229 8.333-3.456l64.294-64.294c5.005-4.992 5.005-13.107 0.013-18.099zM381.107 290.79l-0.256-0.166c-4.672-3.098-10.906-2.483-14.861 1.472l-68.147 68.147c-2.214 2.227-3.443 5.197-3.443 8.346v3.622c0 6.502 5.286 11.789 11.789 11.789h14.31c3.686 0 7.181-1.754 9.395-4.685l53.888-71.834c0.102-0.128 0.192-0.269 0.282-0.397 0.038-0.653 0.243-1.293 0.307-1.946 0.205-2.202 0.525-4.352 1.024-6.464 0.102-0.448 0.090-0.909 0.218-1.344-0.538-2.061-1.766-4.621-4.506-6.541zM396.8 934.4h25.6v-25.6h-25.6v25.6zM321.719 907.424l22.172 12.797 12.797-22.172-22.172-12.797-12.797 22.172zM270.171 846.515l12.797 22.172 22.172-12.797-12.797-22.172-22.172 12.797zM256 793.6h25.6v-25.6h-25.6v25.6zM270.174 715.071l22.172 12.797 12.797-22.172-22.172-12.797-12.797 22.172zM514.047 705.728l12.797 22.172 22.172-12.797-12.797-22.172-22.172 12.797zM537.6 793.6h25.6v-25.6h-25.6v25.6zM514.061 855.872l22.172 12.797 12.797-22.172-22.172-12.797-12.797 22.172zM462.5 898.068l12.797 22.172 22.172-12.797-12.797-22.172-22.172 12.797zM793.6 780.8h-25.6v25.6h-25.6v-25.6h-25.6v-25.6h25.6v-25.6h25.6v25.6h25.6zM640 857.6h25.6v25.6h25.6v25.6h-25.6v25.6h-25.6v-25.6h-25.6v-25.6h25.6zM76.8 729.6h-25.6v-25.6h-25.6v-25.6h25.6v-25.6h25.6v25.6h25.6v25.6h-25.6zM192 806.4v25.6h-25.6v25.6h-25.6v-25.6h-25.6v-25.6h25.6v-25.6h25.6v25.6zM230.4 524.8v25.6h25.6v25.6h-25.6v25.6h-25.6v-25.6h-25.6v-25.6h25.6v-25.6zM678.4 665.6h-25.6v-25.6h-25.6v-25.6h25.6v-25.6h25.6v25.6h25.6v25.6h-25.6z" />
<glyph unicode="&#xe905;" glyph-name="pencil" d="M864 960c88.364 0 160-71.634 160-160 0-36.020-11.91-69.258-32-96l-64-64-224 224 64 64c26.742 20.090 59.978 32 96 32zM64 224l-64-288 288 64 592 592-224 224-592-592zM715.578 596.422l-448-448-55.156 55.156 448 448 55.156-55.156z" />
<glyph unicode="&#xe906;" glyph-name="dt_prototype" horiz-adv-x="819" d="M448 217.6c0 21.171-17.229 38.4-38.4 38.4s-38.4-17.229-38.4-38.4 17.229-38.4 38.4-38.4 38.4 17.229 38.4 38.4zM409.6 204.8c-7.066 0-12.8 5.734-12.8 12.8s5.734 12.8 12.8 12.8 12.8-5.734 12.8-12.8-5.734-12.8-12.8-12.8zM295.526 613.862c-85.030 0-154.189-69.171-154.189-154.189 0-12.787 1.741-25.907 5.146-39.002l5.645-21.606 203.994 203.981-21.606 5.645c-13.107 3.43-26.214 5.171-38.989 5.171zM167.296 450.432c-0.243 3.098-0.358 6.182-0.358 9.242 0 70.899 57.69 128.589 128.589 128.589 3.046 0 6.131-0.115 9.242-0.358l-137.472-137.472zM806.4 709.939c0 32.013-26.035 58.061-58.048 58.061-15.501 0-30.093-6.042-41.050-17.011l-28.902-28.89v186.701c0 21.171-17.229 38.4-38.4 38.4h-460.8c-21.171 0-38.4-17.229-38.4-38.4v-212.672c-77.005-50.56-128-137.638-128-236.454 0-75.52 29.414-146.522 82.816-199.923l9.050-9.050 36.134 36.134v-94.835c0-21.171 17.229-38.4 38.4-38.4h460.8c21.171 0 38.4 17.229 38.4 38.4v365.901l111.002 111.002c10.957 10.957 16.998 25.523 16.998 41.037zM652.8 660.301l13.901-13.901-263.501-263.501-13.901 13.901 263.501 263.501zM379.738 370.163l28.826-28.826-34.586-5.76 5.76 34.586zM435.2 350.899l-13.901 13.901 263.501 263.501 13.901-13.901-263.501-263.501zM670.899 678.4l20.301 20.301 45.901-45.901-20.301-20.301-45.901 45.901zM179.2 921.6h460.8c7.066 0 12.8-5.747 12.8-12.8v-64h-486.4v64c0 7.053 5.734 12.8 12.8 12.8zM95.475 298.496l20.39 14.81-15.053 20.723-20.467-14.861c-10.138 15.45-18.662 31.782-25.19 48.947l24.282 7.885-7.898 24.346-24.192-7.859c-4.736 17.6-7.462 35.814-8.371 54.387h25.178v25.6h-25.101c0.922 18.701 3.814 36.851 8.538 54.298l23.949-7.782 7.898 24.346-23.936 7.782c6.618 17.293 14.912 33.741 24.922 49.011l20.403-14.822 15.053 20.71-20.403 14.822c11.546 14.31 24.576 27.341 38.886 38.886l14.822-20.403 20.723 15.053-14.822 20.403c2.65 1.741 5.427 3.315 8.141 4.954 13.094 7.885 26.765 14.528 40.858 19.942l7.782-23.923 24.346 7.91-7.782 23.949c3.238 0.883 6.464 1.766 9.754 2.509 3.712 0.858 7.45 1.613 11.2 2.304 5.274 0.96 10.586 1.805 15.962 2.445 2.432 0.294 4.877 0.55 7.334 0.768 3.315 0.294 6.694 0.346 10.048 0.512v-25.114h25.6v25.178c18.56-0.909 36.774-3.635 54.374-8.371l-7.859-24.179 24.346-7.91 7.885 24.282c17.165-6.528 33.498-15.066 48.947-25.19l-14.874-20.467 20.723-15.053 14.822 20.403c3.827-3.085 7.706-6.080 11.366-9.408l-363.174-363.187c-3.315 3.661-6.31 7.552-9.408 11.366zM640 179.2h-460.8c-7.066 0-12.8 5.734-12.8 12.8v64h486.4v-64c0-7.066-5.734-12.8-12.8-12.8zM652.8 281.6h-486.4v30.835l338.099 338.099-9.050 9.050c-53.402 53.402-124.403 82.816-199.923 82.816-5.376 0-10.701-0.179-16-0.486-1.139-0.064-2.278-0.179-3.418-0.256-4.378-0.294-8.717-0.678-13.043-1.178-0.896-0.102-1.779-0.23-2.675-0.346-4.877-0.602-9.728-1.344-14.528-2.189-0.243-0.038-0.474-0.090-0.717-0.128-27.878-5.043-54.336-14.17-78.758-26.752v108.134h486.4v-122.701l-293.542-293.555-16.422-98.522 98.522 16.422 211.456 211.456v-250.701zM771.302 686.989l-16.102-16.090-45.901 45.901 16.102 16.102c6.131 6.118 14.285 9.498 22.95 9.498 17.882 0 32.448-14.566 32.448-32.461 0-8.666-3.379-16.819-9.498-22.95zM332.8 896h153.6v-25.6h-153.6v25.6z" />
<glyph unicode="&#xe907;" glyph-name="dt_research" horiz-adv-x="819" d="M755.2 819.2v89.6l30.72-23.040 15.36 20.48-58.88 44.16-58.88-44.16 15.36-20.48 30.72 23.040v-89.6c0-35.29-28.71-64-64-64h-51.2c-40.499 0-74.765-27.034-85.824-63.987l-18.33 0.013-0.474-25.6 15.027-0.013c0 0 0-0.013 0-0.013v-39.898c-6.285 0.896-12.659 1.498-19.2 1.498-29.773 0-58.394-9.946-81.894-28.25-16.806 17.882-40.346 28.25-65.306 28.25-8.768 0-17.37-1.395-25.6-3.866v80.666c0 42.355-34.445 76.8-76.8 76.8h-12.8v25.6h-25.6v-25.6h-38.4c-42.355 0-76.8-34.445-76.8-76.8v-25.6c0-14.118-11.482-25.6-25.6-25.6h-25.6l23.040 30.72-20.48 15.36-44.16-58.88 44.16-58.88 20.48 15.36-23.040 30.72h25.6c28.237 0 51.2 22.963 51.2 51.2v25.6c0 28.237 22.963 51.2 51.2 51.2h76.8c28.237 0 51.2-22.963 51.2-51.2v-93.056c-5.568-3.891-10.752-8.358-15.36-13.478-9.638 2.752-19.52 4.134-29.44 4.134-54.912 0-100.493-40.602-107.686-94.067-45.67-13.504-77.914-55.936-77.914-104.333 0-22.656 7.13-44.787 20.211-63.142-4.928-12.582-7.411-25.754-7.411-39.258 0-59.994 48.806-108.8 108.8-108.8 4.851 0 9.6 0.435 14.285 1.050 0.883 0.115 1.766 0.269 2.65 0.41 4.736 0.742 9.395 1.728 13.926 3.072 17.6-11.366 37.76-17.331 58.739-17.331 23.462 0 45.811 7.386 64.358 21.069 20.173-29.133 53.107-46.669 89.242-46.669 33.562 0 64.474 15.13 85.030 41.050 16.832-10.15 35.866-15.45 55.77-15.45 59.994 0 108.8 48.806 108.8 108.8 0 3.482-0.192 6.938-0.525 10.381-0.128 1.37-0.371 2.701-0.55 4.058-0.269 1.984-0.525 3.955-0.909 5.926-0.346 1.805-0.781 3.571-1.216 5.35-0.333 1.382-0.666 2.752-1.062 4.122-0.614 2.15-1.318 4.25-2.048 6.336-0.179 0.512-0.307 1.037-0.499 1.549 20.698 20.39 32.41 48.128 32.41 77.478 0 6.528-0.64 12.941-1.766 19.2h1.766v25.6h-9.779c-12.826 28.186-37.325 50.342-67.942 59.456-5.632 52.467-40.947 95.258-88.678 112.026v46.118c0 35.29 28.71 64 64 64h51.2c49.395 0 89.6 40.205 89.6 89.6zM614.182 496.806l0.358-10.099 9.907-1.984c23.027-4.621 42.112-18.765 53.939-37.696v-24.627h10.253c1.51-6.221 2.56-12.595 2.56-19.2 0-19.738-7.014-38.438-19.443-53.286-19.674 28.288-52.365 46.886-89.357 46.886v-25.6c33.165 0 61.786-19.558 75.136-47.706 1.254-2.65 2.355-5.35 3.328-8.064 0.077-0.218 0.166-0.435 0.243-0.653 0.858-2.496 1.562-5.030 2.176-7.578 0.102-0.448 0.243-0.896 0.346-1.357 0.525-2.368 0.896-4.762 1.216-7.155 0.077-0.589 0.205-1.165 0.269-1.766 0.307-2.957 0.486-5.926 0.486-8.922 0-45.875-37.325-83.2-83.2-83.2-18.637 0-36.314 6.106-51.11 17.651l-5.248 4.096c-17.126 15.667-27.11 37.99-27.11 61.453h-25.6c0-29.466 12.16-57.459 32.96-77.786-15.731-19.584-39.206-31.014-64.691-31.014-31.782 0-60.339 17.766-74.496 46.374l-7.885 15.91-12.608-12.531c-15.693-15.565-36.506-24.154-58.611-24.154-10.125 0-19.93 2.022-29.235 5.555 29.184 19.533 48.435 52.774 48.435 90.445 0 2.726-0.358 5.376-0.55 8.064 20.365 3.533 39.398 12.749 54.848 26.918l-17.306 18.88c-11.93-10.931-26.624-17.997-42.368-20.634-8.563 26.726-27.098 49.574-52.8 63.117l-11.93-22.656c27.456-14.477 44.506-42.701 44.506-73.69 0-35.917-22.925-66.496-54.874-78.131-4.506-1.626-9.075-2.854-13.67-3.699-0.307-0.051-0.614-0.090-0.922-0.141-4.57-0.781-9.152-1.229-13.734-1.229-45.875 0-83.2 37.325-83.2 83.2 0 12.314 2.726 24.282 8.102 35.61l3.507 7.373-5.222 6.298c-12.378 14.899-19.187 33.754-19.187 53.12 0 39.501 28.070 73.805 66.739 81.562l9.818 1.958 0.461 9.984c1.306 27.981 16.23 52.122 38.182 66.189v-25.293h25.6v36.083c6.17 1.459 12.582 2.317 19.2 2.317 9.894 0 19.763-1.83 29.286-5.427l9.152-3.456 5.734 7.91c0.192 0.269 0.422 0.499 0.627 0.768v-63.795h25.6v84.070c8 3.533 16.678 5.53 25.6 5.53 17.715 0 34.368-7.386 46.349-20.032-21.44-24.397-33.549-56.013-33.549-88.768 0-74.112 60.288-134.4 134.4-134.4v25.6c-59.994 0-108.8 48.806-108.8 108.8 0 26.714 9.92 52.493 27.533 72.32l6.528 6.234c20.442 19.507 46.976 30.246 74.739 30.246 6.566 0 12.966-0.653 19.2-1.766v-49.434c0-35.29-28.71-64-64-64h-12.8v-25.6h12.8c49.395 0 89.6 40.205 89.6 89.6v41.523c36.493-16.448 62.221-52.365 63.782-95.117zM601.6 448h38.4v-25.6h-38.4v25.6zM422.4 755.2c0-1.331 0.026-2.662 0.090-3.994l25.574 1.126-0.064 37.837h-25.6v-34.97zM422.4 866.97h25.6v-38.4h-25.6v38.4zM663.616 691.2h38.4v-25.6h-38.4v25.6zM467.034 677.773l12.902 22.106c-9.242 5.402-17.075 13.082-22.656 22.234l-21.85-13.325c7.782-12.762 18.701-23.488 31.603-31.014zM780.8 512c0-1.51-0.051-3.008-0.166-4.518l25.549-1.779c0.141 2.086 0.218 4.186 0.218 6.298v32.986h-25.6v-32.986zM781.491 663.475c-10.368 10.842-23.347 18.97-37.555 23.514l-7.795-24.371c10.138-3.251 19.43-9.075 26.854-16.832l18.496 17.69zM586.816 691.2h38.4v-25.6h-38.4v25.6zM803.302 624.896l-24.704-6.669c1.459-5.414 2.202-11.008 2.202-16.627v-18.214h25.6v18.214c0 7.872-1.037 15.718-3.098 23.296zM747.43 455.859l12.326-22.426c13.082 7.194 24.282 17.638 32.397 30.195l-21.53 13.875c-5.798-8.986-13.824-16.474-23.194-21.645zM422.4 908.8v-3.43h25.6v3.43l30.72-23.040 15.36 20.48-58.88 44.16-58.88-44.16 15.36-20.48zM217.6 652.8h25.6v-38.4h-25.6v38.4zM217.6 499.2h25.6v-38.4h-25.6v38.4zM217.6 729.6h25.6v-38.4h-25.6v38.4zM217.6 883.2h25.6v-38.4h-25.6v38.4zM230.4 918.4l43.52-32.64 15.36 20.48-58.88 44.16-58.88-44.16 15.36-20.48z" />
<glyph unicode="&#xe908;" glyph-name="dt_test" horiz-adv-x="819" d="M238.933 379.733h-102.4c-9.426 0-17.067-7.641-17.067-17.067v0-102.4c0-9.426 7.641-17.067 17.067-17.067v0h102.4c9.426 0 17.067 7.641 17.067 17.067v0 102.4c0 9.426-7.641 17.067-17.067 17.067v0zM221.867 277.333h-68.267v68.267h68.267zM238.933 567.467h-102.4c-9.426 0-17.067-7.641-17.067-17.067v0-102.4c0-9.426 7.641-17.067 17.067-17.067v0h102.4c9.426 0 17.067 7.641 17.067 17.067v0 102.4c0 9.426-7.641 17.067-17.067 17.067v0zM221.867 465.067h-68.267v68.267h68.267zM324.267 635.733h221.867c9.426 0 17.067 7.641 17.067 17.067s-7.641 17.067-17.067 17.067v0h-221.867c-9.426 0-17.067-7.641-17.067-17.067s7.641-17.067 17.067-17.067v0zM324.267 704h221.867c9.426 0 17.067 7.641 17.067 17.067s-7.641 17.067-17.067 17.067v0h-221.867c-9.426 0-17.067-7.641-17.067-17.067s7.641-17.067 17.067-17.067v0zM460.8 482.133h-136.533c-9.426 0-17.067-7.641-17.067-17.067s7.641-17.067 17.067-17.067v0h136.533c9.426 0 17.067 7.641 17.067 17.067s-7.641 17.067-17.067 17.067v0zM324.267 516.267h136.533c9.426 0 17.067 7.641 17.067 17.067s-7.641 17.067-17.067 17.067v0h-136.533c-9.426 0-17.067-7.641-17.067-17.067s7.641-17.067 17.067-17.067v0zM409.6 294.4h-85.333c-9.426 0-17.067-7.641-17.067-17.067s7.641-17.067 17.067-17.067v0h85.333c9.426 0 17.067 7.641 17.067 17.067s-7.641 17.067-17.067 17.067v0zM409.6 362.667h-85.333c-9.426 0-17.067-7.641-17.067-17.067s7.641-17.067 17.067-17.067v0h85.333c9.426 0 17.067 7.641 17.067 17.067s-7.641 17.067-17.067 17.067v0zM226.816 733.184l-56.149-56.32-22.016 22.187c-3.101 3.101-7.385 5.019-12.117 5.019-9.464 0-17.136-7.672-17.136-17.136 0-4.732 1.918-9.016 5.019-12.117v0c56.149-55.979 34.133-58.027 126.635 34.133 3.101 3.101 5.019 7.385 5.019 12.117 0 9.464-7.672 17.136-17.136 17.136-4.732 0-9.016-1.918-12.117-5.019v0zM755.2 735.744c-8.555 4.991-18.833 7.937-29.798 7.937-21.987 0-41.208-11.846-51.628-29.503l-0.152-0.279-25.088-44.032c0 165.717 1.365 157.696-4.096 164.181-112.469 131.755-102.912 121.515-107.691 123.904-8.704 4.608-7.68 2.048-485.547 2.048-9.426 0-17.067-7.641-17.067-17.067v0-785.067c0-9.426 7.641-17.067 17.067-17.067v0h580.267c9.426 0 17.067 7.641 17.067 17.067v0 273.067c48.811 84.48 81.067 140.288 128.512 221.867 5.403 8.807 8.603 19.471 8.603 30.882 0 22.228-12.142 41.621-30.155 51.908l-0.293 0.154zM546.133 896.853l48.299-56.32h-48.299zM614.4 174.933h-546.133v750.933h443.733v-102.4c0-9.426 7.641-17.067 17.067-17.067v0h85.333v-195.072l-132.779-230.059c-2.901-4.949-1.707 0-8.021-102.4-0.020-0.306-0.031-0.664-0.031-1.024 0-9.426 7.641-17.067 17.067-17.067 0.011 0 0.022 0 0.032 0h-0.002c7.339 0 4.096 0 89.088 55.296 4.437 3.072 2.048 0 34.133 56.661zM512 358.571c15.175-2.27 28.187-10.133 37.113-21.384l0.092-0.12-40.107-26.453zM570.027 365.056c-11.775 12.193-26.825 21.152-43.732 25.461l-0.641 0.139 138.411 238.933 44.373-25.6zM747.52 671.232l-21.333-37.035-43.52 25.6 21.333 37.035c4.727 5.605 11.755 9.141 19.608 9.141 14.138 0 25.6-11.462 25.6-25.6 0-3.286-0.619-6.428-1.747-9.315l0.060 0.174z" />
<glyph unicode="&#xe909;" glyph-name="opensource_noeuro" d="M511.99 954.636c-279.462 0-506.659-227.196-506.659-506.659s227.196-506.659 506.659-506.659c279.462 0 506.659 227.197 506.659 506.659s-227.196 506.659-506.659 506.659zM97.063 447.977c0 98.132 34.133 187.731 90.665 258.129l110.932-110.932c14.933 28.8 34.133 54.399 56.532 74.666l-101.332 101.332c70.399 56.532 161.064 90.665 258.129 90.665 228.263 0 414.927-185.597 414.927-414.927 0-98.132-34.133-187.73-90.665-258.129l-97.065 97.065c1.067-4.267 1.067-8.533 1.067-12.8 0-17.067-6.4-33.066-18.133-44.799-9.6-9.6-19.2-18.133-29.866-25.6l78.932-78.932c-71.466-56.532-161.064-90.665-258.129-90.665-229.33 0-415.994 186.664-415.994 414.927zM511.96 960c-282.353 0-511.96-229.686-511.96-512.039s229.608-511.961 511.96-511.961c282.353 0 512.039 229.608 512.039 511.961s-229.686 512.039-512.039 512.039zM511.96 949.292c276.572 0 501.331-224.759 501.331-501.331s-224.759-501.33-501.331-501.33c-276.572 0-501.331 224.759-501.331 501.33s224.759 501.331 501.331 501.331zM511.96 867.167c-98.315 0-190.088-34.534-261.413-91.809l-4.646-3.777 102.282-102.282c-19.535-18.537-36.269-41.063-49.999-66.062l-110.864 110.864-3.779-4.646c-57.259-71.304-91.81-162.123-91.81-261.492 0-231.17 189.108-420.229 421.332-420.229 98.315 0 189.066 34.58 261.413 91.809l4.724 3.701-79.133 79.131c9.009 6.78 17.599 13.898 25.826 22.126 12.537 12.537 19.131 29.674 19.37 47.716l91.416-91.416 3.701 4.645c57.259 71.304 91.888 162.124 91.888 261.492 0 232.224-189.154 420.23-420.308 420.23zM511.96 856.537c225.372 0 409.6-183.164 409.6-409.6 0-94.706-32.893-180.77-86.455-249.524l-105.746 105.825 4.646-18.661c0.864-3.455 0.945-7.23 0.945-11.496 0-15.733-5.909-30.397-16.614-41.102-9.46-9.46-18.799-17.727-29.133-24.96l-5.197-3.62 78.424-78.503c-69.758-53.552-155.752-86.534-249.366-86.534-226.436 0-410.702 184.245-410.702 409.6 0 94.682 32.997 180.7 86.534 249.445l111.179-111.179 3.307 6.457c14.668 28.288 33.486 53.443 55.353 73.227l4.173 3.701-100.313 100.392c68.767 53.504 155.758 86.534 249.366 86.534zM535.456 609.041c30.933 0 61.866-12.8 86.399-37.333 5.333-5.333 12.8-5.333 18.133 0l44.799 41.599c3.2 2.133 4.267 6.4 4.267 9.6s-1.067 7.467-4.267 9.6c-41.599 41.6-94.932 65.066-150.398 65.066-91.732 0-174.931-63.999-207.997-158.931h-49.066c-7.467 0-13.866-6.4-13.866-13.867v-40.532c0-7.467 6.4-13.867 13.866-13.867h34.133c-1.067-7.467-1.067-14.933-1.067-21.333 0-7.467 0-13.867 1.067-21.333h-34.133c-7.467 0-13.866-6.4-13.866-13.866v-40.533c0-7.467 6.4-13.867 13.866-13.867h49.066c33.066-95.998 116.265-158.931 207.997-158.931 55.466 0 108.798 23.466 150.398 65.066 2.133 2.133 4.267 6.4 4.267 9.6s-2.133 7.467-4.267 9.6l-44.799 40.532c-5.333 5.334-12.8 4.267-18.133-1.068-24.533-23.466-54.399-37.333-86.399-37.333-44.799 0-86.399 26.666-111.998 71.466h116.265c7.467 0 13.866 6.4 13.866 13.867v40.533c0 7.466-6.4 13.866-13.866 13.866h-137.598c-1.067 7.467-1.067 14.933-1.067 21.333s0 13.867 1.067 21.333h137.598c7.467 0 13.866 6.4 13.866 13.867v40.532c0 7.467-6.4 13.867-13.866 13.867h-115.198c24.533 43.733 67.199 71.466 110.932 71.466zM534.401 702.917c-92.956 0-176.627-64.24-211.257-158.974h-45.826c-10.514 0-19.212-8.619-19.212-19.134v-40.551c0-10.514 8.698-19.212 19.212-19.212h28.582c-0.429-5.618-0.866-11.344-0.866-15.984 0-5.394 0.443-10.643 0.866-15.984h-28.582c-10.514 0-19.212-8.698-19.212-19.212v-40.551c0-10.514 8.698-19.212 19.212-19.212h45.905c34.644-95.689 118.289-158.895 211.178-158.895 56.97 0 111.669 24.111 154.171 66.613 3.392 3.39 5.827 7.815 5.827 13.386s-2.437 9.917-5.827 13.307l-0.081 0.161-44.724 40.393c-3.672 3.673-8.64 5.429-13.307 5.039-4.666-0.403-8.941-2.641-12.362-6.063-23.713-22.649-52.252-35.826-82.676-35.826-39.33 0-74.943 23.506-99.92 60.865h104.25c10.514 0 19.134 8.619 19.134 19.134v40.551c0 10.514-8.619 19.212-19.134 19.212h-132.596c-0.473 5.464-0.787 11.006-0.787 15.984 0 4.959 0.318 10.541 0.787 15.984h132.596c10.514 0 19.134 8.698 19.134 19.212v40.551c0 10.514-8.619 19.212-19.134 19.212h-103.227c24.27 36.571 60.695 60.786 98.896 60.786 29.462 0 59.072-12.143 82.676-35.747 7.093-7.093 18.576-7.093 25.669 0l44.645 41.417-0.709-0.472c5.477 3.648 6.693 9.63 6.693 14.016 0 4.336-1.219 10.198-6.535 13.858-42.412 42.114-96.771 66.14-153.462 66.14zM534.401 692.209c53.962 0 105.915-22.767 146.612-63.464l0.395-0.403 0.395-0.323c0.924-0.617 1.89-3.1 1.89-5.118 0-2.016-0.967-4.582-1.89-5.197l-0.314-0.242-45.196-41.968h-0.081c-3.573-3.572-6.978-3.572-10.551 0-25.462 25.462-57.831 38.818-90.235 38.818h-5.276v-1.653c-43.97-2.225-85.983-29.147-110.313-72.519l-4.409-7.952h124.329c4.419 0 8.504-4.085 8.504-8.504v-40.551c0-4.419-4.085-8.504-8.504-8.504h-142.281l-0.63-4.567c-1.137-7.959-1.102-15.726-1.102-22.126s-0.035-14.087 1.102-22.047l0.63-4.567h142.281c4.419 0 8.504-4.164 8.504-8.583v-40.551c0-4.419-4.085-8.504-8.504-8.504h-125.51l4.567-7.953c26.382-46.168 69.697-74.172 116.612-74.172 33.54 0 64.74 14.583 90.077 38.818h0.081l0.081 0.081c1.913 1.915 3.936 2.846 5.669 2.991 1.734 0.161 3.221-0.323 4.882-1.967l0.081-0.081 44.883-40.631c0.913-1.097 2.52-4.796 2.52-5.59 0-0.83-1.802-4.952-2.677-5.827-40.697-40.697-92.65-63.543-146.612-63.543-89.293 0-170.586 61.279-202.989 155.352l-1.181 3.62h-52.913c-4.419 0-8.504 4.085-8.504 8.504v40.551c0 4.418 4.085 8.504 8.504 8.504h40.314l-0.866 6.063c-1.006 7.044-1.024 13.163-1.024 20.63 0 6.4 0.027 13.577 1.024 20.551l0.866 6.063h-40.314c-4.419 0-8.504 4.164-8.504 8.583v40.551c0 4.419 4.085 8.504 8.504 8.504h52.834l1.26 3.544c32.397 93.011 113.738 155.352 202.989 155.352z" />
<glyph unicode="&#xe90a;" glyph-name="opensource__share" horiz-adv-x="819" d="M537.6 867.2c-0.048 0-0.104 0-0.161 0-104.182 0-188.639-84.457-188.639-188.639 0-74.257 42.906-138.493 105.279-169.268l1.105-0.493-163.366 0.156c1.484 10.795 8.293 19.721 17.647 24.144l0.19 0.081c14.606 9.788 32.787 21.969 32.762 68.475-0.026 31.238-0.050 60.744-60.813 60.744-5.301-0.001-9.599-4.299-9.6-9.6v0c0-87.625-81.619-136.488-95.187-144h-13.618v41.6c-0.001 5.301-4.299 9.599-9.6 9.6h-51.2c-5.301-0.001-9.599-4.299-9.6-9.6v0-307.2c0.001-5.301 4.299-9.599 9.6-9.6h51.2c5.301 0.001 9.599 4.299 9.6 9.6v0 41.6h220.826c0.299-0.009 0.651-0.015 1.004-0.015 18.894 0 34.211 15.317 34.211 34.211 0 0.353-0.005 0.705-0.016 1.055l0.001-0.051c0.003 0.187 0.005 0.407 0.005 0.628 0 5.79-1.334 11.267-3.712 16.143l0.096-0.218c16.583 2.223 29.238 16.281 29.238 33.296 0 0.475-0.010 0.949-0.029 1.419l0.002-0.067c0.003 0.187 0.005 0.407 0.005 0.628 0 5.79-1.334 11.267-3.712 16.143l0.096-0.218c16.583 2.223 29.238 16.281 29.238 33.296 0 0.475-0.010 0.949-0.029 1.419l0.002-0.067c0.003 0.162 0.004 0.354 0.004 0.546 0 5.605-1.245 10.919-3.473 15.681l0.096-0.227h96.148c0.299-0.009 0.651-0.015 1.004-0.015 18.894 0 34.211 15.317 34.211 34.211 0 0.353-0.005 0.705-0.016 1.055l0.001-0.051c0.012 0.334 0.019 0.727 0.019 1.121 0 8.614-3.22 16.476-8.522 22.448l0.030-0.035c79.463 23.431 136.473 95.73 136.473 181.345 0 104.228-84.493 188.721-188.721 188.721-0.028 0-0.055 0-0.083 0h0.004zM144 499.2v-246.4h-32v288h32zM537.6 848c22.027 0 45.772-33.483 58.291-87.277-17.514 2.595-37.729 4.077-58.291 4.077s-40.777-1.482-60.545-4.345l2.255 0.268c12.518 53.795 36.263 87.277 58.29 87.277zM537.6 611.2c-0.195 0-0.427-0.001-0.658-0.001-21.735 0-43.046 1.816-63.789 5.305l2.24-0.311c-3.177 18.7-4.993 40.241-4.993 62.207s1.816 43.507 5.306 64.482l-0.313-2.275c18.7 3.177 40.241 4.993 62.207 4.993s43.507-1.816 64.482-5.306l-2.275 0.313c3.177-18.7 4.993-40.241 4.993-62.207s-1.816-43.507-5.306-64.482l0.313 2.275c-18.503-3.177-39.814-4.994-61.549-4.994-0.231 0-0.463 0-0.694 0.001h0.036zM595.891 596.077c-12.519-53.795-36.265-87.277-58.291-87.277s-45.772 33.483-58.291 87.277c17.34-2.595 37.351-4.078 57.709-4.078 0.205 0 0.409 0 0.614 0h-0.032c0.173 0 0.378 0 0.583 0 20.358 0 40.369 1.482 59.932 4.345l-2.224-0.267zM494.118 842.14c-17.321-23.993-29.714-52.695-35.068-83.805l-0.173-1.213c-32.323-5.526-61.025-17.92-85.62-35.654l0.603 0.414c16.097 58.792 61.466 104.161 119.065 119.979l1.193 0.279zM455.277 736.691c-2.595-17.514-4.077-37.729-4.077-58.291s1.482-40.777 4.345-60.545l-0.268 2.255c-53.795 12.518-87.277 36.263-87.277 58.29s33.483 45.772 87.277 58.291zM373.86 634.918c23.993-17.321 52.695-29.714 83.805-35.068l1.213-0.173c5.526-32.323 17.92-61.025 35.654-85.62l-0.414 0.603c-58.792 16.097-104.161 61.466-119.979 119.065l-0.279 1.193zM563.2 457.6h-204.774c-5.302 0-9.6-4.298-9.6-9.6s4.298-9.6 9.6-9.6v0h76.719c0.012 0 0.026 0 0.041 0 8.837 0 16-7.163 16-16 0-8.822-7.14-15.977-15.957-16h-102.402c-5.302 0-9.6-4.298-9.6-9.6s4.298-9.6 9.6-9.6v0h76.719c0.012 0 0.026 0 0.041 0 8.837 0 16-7.163 16-16 0-8.822-7.14-15.977-15.957-16h-102.402c-5.302 0-9.6-4.298-9.6-9.6s4.298-9.6 9.6-9.6v0h76.719c0.012 0 0.026 0 0.041 0 8.837 0 16-7.163 16-16 0-8.822-7.14-15.977-15.957-16h-220.828v185.6h16.026c1.565 0.001 3.042 0.375 4.349 1.038l-0.055-0.025c0.387 0.194 1.758 0.918 3.536 1.897 17.819 9.814 98.385 59.074 103.857 150.478 32.275-1.619 32.282-12.781 32.306-41.406 0.019-36.188-11.226-43.725-24.25-52.45-16.265-8.637-27.154-25.469-27.154-44.845 0-1.716 0.085-3.413 0.252-5.085l-0.017 0.211c0.023-5.251 4.26-9.505 9.501-9.556l255.582-0.233c0.158 0 0.309-0.023 0.467-0.023 0.152 0 0.298 0.023 0.45 0.023l25.069-0.023c0.012 0 0.026 0 0.040 0 8.837 0 16-7.163 16-16 0-8.822-7.14-15.977-15.958-16h-0.002zM581.082 514.66c17.321 23.993 29.714 52.695 35.068 83.805l0.173 1.213c32.323 5.526 61.025 17.92 85.62 35.654l-0.603-0.414c-16.097-58.792-61.466-104.161-119.065-119.979l-1.193-0.279zM619.923 620.109c2.595 17.514 4.077 37.729 4.077 58.291s-1.482 40.777-4.345 60.545l0.268-2.255c53.795-12.518 87.277-36.264 87.277-58.291s-33.483-45.771-87.277-58.29zM616.323 757.122c-5.526 32.323-17.92 61.025-35.654 85.62l0.414-0.603c58.792-16.097 104.16-61.466 119.978-119.065l0.279-1.193c-23.992 17.321-52.694 29.715-83.804 35.068l-1.213 0.173z" />
<glyph unicode="&#xe90b;" glyph-name="opensource_nolock" horiz-adv-x="998" d="M825.28 641.331h-340.877v117.952c0 110.682-90.048 200.717-200.73 200.717h-82.957c-110.682 0-200.717-90.035-200.717-200.717v-168.742h82.394v168.742c0 65.254 53.069 118.323 118.323 118.323h82.957c65.267 0 118.349-53.069 118.349-118.323v-129.331c-65.101-24.755-111.578-87.629-111.578-161.306v-359.987c0-95.194 77.466-172.659 172.659-172.659h362.202c95.206 0 172.659 77.466 172.659 172.659v359.987c0 95.206-77.466 172.685-172.685 172.685zM915.584 108.659c0-49.779-40.499-90.278-90.278-90.278h-362.202c-49.779 0-90.278 40.499-90.278 90.278v359.987c0 49.792 40.499 90.291 90.278 90.291h362.176c49.792 0 90.304-40.499 90.304-90.291zM200.707 966.4c-114.152 0-207.1-92.973-207.1-207.125v-175.125h95.175v175.125c0 61.784 50.141 111.925 111.925 111.925h82.975c61.798 0 111.95-50.141 111.95-111.925v-125.675c-65.173-26.807-111.6-90.273-111.6-164.95v-360c0-98.666 80.409-179.050 179.075-179.050h362.2c98.678 0 179.050 80.385 179.050 179.050v360c0 98.678-80.384 179.075-179.075 179.075h-334.475v111.55c0 114.153-92.973 207.125-207.125 207.125h-82.975zM200.707 953.6h82.975c107.211 0 194.325-87.115 194.325-194.325v-124.35h347.275c91.747 0 166.275-74.54 166.275-166.275v-360c0-91.722-74.515-166.25-166.25-166.25h-362.2c-91.722 0-166.275 74.528-166.275 166.25v360c0 70.985 44.793 131.49 107.475 155.325l4.125 1.575v133.725c0 68.725-56.014 124.725-124.75 124.725h-82.975c-68.724 0-124.725-56.001-124.725-124.725v-162.325h-69.575v162.325c0 107.211 87.089 194.325 194.3 194.325zM463.107 565.35c-53.25 0-96.675-43.438-96.675-96.7v-360c0-53.25 43.425-96.675 96.675-96.675h362.2c53.25 0 96.675 43.425 96.675 96.675v360c0 53.263-43.438 96.7-96.7 96.7h-362.175zM463.107 552.55h362.175c46.322 0 83.9-37.579 83.9-83.9v-360c0-46.308-37.567-83.875-83.875-83.875h-362.2c-46.308 0-83.875 37.567-83.875 83.875v360c0 46.322 37.567 83.9 83.875 83.9zM644.198 349.939c-32.87 0-59.622-26.739-59.622-59.61 0-26.33 17.446-49.126 41.971-56.73v-40.64h35.315v40.64c24.525 7.603 41.971 30.4 41.971 56.73 0 32.87-26.752 59.61-59.635 59.61zM644.207 356.35c-36.341 0-66.025-29.682-66.025-66.025 0-27.406 17.37-50.852 41.975-60.625v-43.15h48.1v43.15c24.605 9.773 41.975 33.219 41.975 60.625 0 36.343-29.672 66.025-66.025 66.025zM644.207 343.55c29.414 0 53.225-23.827 53.225-53.225 0-23.502-15.586-43.814-37.475-50.6l-4.5-1.4v-38.975h-22.5v38.975l-4.525 1.4c-21.889 6.786-37.45 27.098-37.45 50.6 0 29.398 23.825 53.225 53.225 53.225z" />
<glyph unicode="&#xe90c;" glyph-name="collaboration_hands" horiz-adv-x="1268" d="M1248.298 531.391l-226.316 337.523c-17.559 27.314-54.628 35.118-81.942 15.608l-72.187-46.824c-27.314-17.559-33.167-54.628-15.608-81.942l19.51-29.265c-60.481-3.902-119.011 21.461-119.011 23.412-56.579 23.412-117.060 9.755-161.933-7.804-31.216 25.363-81.942 50.726-126.815 66.334 17.559 27.314 11.706 62.432-13.657 81.942l-70.236 48.775c-25.363 19.51-64.383 11.706-83.893-13.657l-275.091-376.543c-19.51-27.314-13.657-64.383 13.657-83.893l68.285-50.726c9.755-7.804 23.412-11.706 35.118-11.706 17.559 0 31.216 7.804 42.922 19.51 23.412-23.412 46.824-44.873 64.383-58.53l-42.922-62.432c-25.363-39.020-15.608-93.648 25.363-119.011 21.461-13.657 46.824-17.559 74.138-9.755 1.951-25.363 15.608-48.775 37.069-64.383 13.657-9.755 31.216-13.657 46.824-13.657 9.755 0 17.559 1.951 25.363 3.902 1.951-25.363 15.608-48.775 37.069-64.383 13.657-9.755 31.216-13.657 46.824-13.657 7.804 0 17.559 1.951 25.363 3.902 1.951-23.412 15.608-46.824 37.069-62.432l3.902-1.951c39.020-25.363 91.697-15.608 117.060 23.412 9.755 15.608 17.559 21.461 23.412 42.922l11.706-7.804c33.167-23.412 79.991-15.608 103.403 19.51 7.804 11.706 13.657 27.314 13.657 42.922 27.314-3.902 56.579 7.804 72.187 31.216 11.706 15.608 15.608 37.069 11.706 60.481 23.412 3.902 40.971 15.608 52.677 31.216 9.755 13.657 13.657 27.314 13.657 42.922 27.314-3.902 56.579 7.804 72.187 31.216 17.559 27.314 17.559 62.432-3.902 89.746 13.657 19.51 21.461 37.069 25.363 52.677l1.951-3.902c17.559-27.314 54.628-35.118 81.942-15.608l74.138 48.775c27.314 17.559 33.167 54.628 15.608 81.942zM126.473 445.547l-68.285 50.726c-9.755 7.804-11.706 19.51-3.902 29.265l275.091 378.494c7.804 9.755 19.51 11.706 29.265 3.902l68.285-50.726c9.755-5.853 11.706-19.51 3.902-29.265l-275.091-376.543c-7.804-9.755-21.461-11.706-29.265-5.853zM247.435 213.378c-21.461 13.657-27.314 42.922-13.657 64.383l91.697 132.668c13.657 21.461 42.922 27.314 66.334 13.657 21.461-15.608 27.314-44.873 13.657-64.383l-91.697-132.668c-13.657-21.461-44.873-27.314-66.334-13.657zM358.642 139.24c-21.461 13.657-27.314 42.922-13.657 64.383l60.481 87.795c13.657 21.461 42.922 27.314 66.334 13.657 21.461-13.657 27.314-42.922 13.657-64.383l-60.481-87.795c-13.657-21.461-44.873-27.314-66.334-13.657zM471.8 65.102c-21.461 13.657-27.314 42.922-13.657 64.383l29.265 39.020c35.118 52.677 113.158 0 79.991-50.726-19.51-25.363-13.657-19.51-27.314-39.020v0c-17.559-19.51-48.775-27.314-68.285-13.657zM659.096 24.131l-13.657-19.51c-13.657-19.51-42.922-25.363-62.432-13.657l-3.902 1.951c-21.461 13.657-27.314 40.971-13.657 62.432 1.951 1.951 19.51 27.314 17.559 25.363 40.971 40.971 107.305-11.706 76.089-56.579zM1021.982 299.222c-11.706-15.608-33.167-19.51-48.775-9.755l-142.423 99.501c-1.951 1.951-5.853 1.951-9.755 3.902-5.853 0-13.657-1.951-17.559-7.804-5.853-7.804-3.902-21.461 3.902-27.314l119.011-83.893c39.020-27.314-1.951-85.844-40.971-58.53l-107.305 76.089c-9.755 5.853-21.461 3.902-27.314-3.902-5.853-9.755-3.902-21.461 3.902-27.314l107.305-76.089c15.608-11.706 19.51-33.167 9.755-50.726-11.706-15.608-33.167-21.461-50.726-9.755-11.706 7.804-101.452 68.285-95.599 64.383l-9.755 5.853c-9.755 5.853-21.461 3.902-27.314-5.853-3.902-5.853-3.902-15.608 0-21.461s7.804-5.853 17.559-13.657c54.628-40.971 85.844-44.873 85.844-76.089 0-27.314-31.216-46.824-56.579-29.265l-35.118 25.363c-11.706 39.020-52.677 64.383-91.697 60.481 3.902 31.216-9.755 64.383-37.069 81.942-23.412 15.608-42.922 13.657-46.824 13.657 17.559 37.069 3.902 83.893-31.216 107.305-13.657 9.755-31.216 13.657-48.775 13.657 13.657 37.069 1.951 79.991-33.167 103.403-39.020 25.363-93.648 15.608-119.011-23.412l-25.363-37.069c-17.559 13.657-40.971 35.118-62.432 58.53l234.12 319.964c42.922-15.608 83.893-35.118 111.207-52.677-13.657-7.804-23.412-13.657-27.314-17.559-48.775-25.363-64.383-60.481-70.236-85.844-7.804-48.775 35.118-91.697 103.403-85.844 93.648 7.804 91.697 50.726 138.521 68.285 5.853 1.951 13.657 0 17.559-3.902 323.866-263.385 298.503-243.875 300.454-243.875 17.559-11.706 21.461-35.118 9.755-50.726zM1039.541 474.812c1.951-9.755 7.804-40.971-19.51-81.942l-280.944 234.12c-15.608 11.706-37.069 15.608-54.628 9.755-66.334-23.412-42.922-58.53-128.766-66.334-31.216-1.951-66.334 9.755-62.432 40.971 3.902 25.363 21.461 44.873 50.726 60.481l1.951 1.951c1.951 0 105.354 76.089 189.247 40.971 3.902-1.951 81.942-37.069 159.982-23.412 15.608-23.412-52.677 78.040 144.374-216.561zM1211.229 482.616l-74.138-48.775c-9.755-5.853-21.461-3.902-27.314 5.853l-224.365 337.523c-5.853 9.755-3.902 21.461 5.853 27.314l74.138 48.775c9.755 5.853 21.461 3.902 27.314-5.853l226.316-337.523c3.902-9.755 0-21.461-7.804-27.314zM334.491 958.95c-17.775-3.066-34.655-12.723-46.031-27.512l-0.039-0.076-275.236-376.75c-22.473-31.462-15.605-74.988 15.928-97.512l67.866-50.375c11.984-9.588 27.318-13.87 41.192-13.87 16.898 0 30.503 7.295 42.183 16.805 18.857-18.566 36.883-34.996 52.281-47.518l-38.258-55.634c-28.228-43.428-17.298-104.239 28.312-132.569 0.014-0.009 0.023-0.029 0.039-0.039 21.092-13.407 46.371-16.666 72.553-11.584 4.568-24.487 17.244-47.016 38.105-62.188h0.039l0.039-0.039c15.874-11.339 35.275-15.471 52.509-15.471 7.498 0 12.95 1.586 18.786 2.858 4.72-24.185 17.229-46.448 37.877-61.464l0.078-0.078c15.874-11.339 35.275-15.471 52.509-15.471 6.433 0 12.66 1.573 18.9 2.858 4.809-22.834 17.26-44.582 37.801-59.521l0.648-0.457 4.611-2.324-0.953 0.533c43.342-28.172 102.228-17.279 130.549 26.293l0.039 0.076 0.076 0.076c6.825 10.921 12.743 21.484 18.405 34.142l2.82-1.829c37.535-26.495 90.764-17.495 117.136 22.063 7.225 10.837 10.787 25.271 12.575 39.782 28.209-1.125 56.769 9.971 73.048 34.181 11.98 16.114 15.469 37.223 13.413 59.368 21.535 5.582 39.29 16.616 50.866 32.052l0.076 0.115 0.076 0.076c8.926 12.497 11.381 26.141 12.765 40.049 28.296-1.115 56.995 10.006 73.239 34.371l0.039 0.039 0.039 0.076c18.269 28.419 17.422 64.573-1.867 94.12 8.517 12.878 13.005 24.423 17.262 35.895 22.374-23.847 59.204-29.932 87.452-9.755l73.81 48.547c31.973 20.612 38.691 63.881 18.443 95.378l-0.078 0.152-226.271 337.425c-20.491 31.815-64.061 40.852-95.758 18.211l0.343 0.267-72.172-46.832c-32.013-20.599-38.777-63.903-18.519-95.416l0.039-0.076 7.964-11.965c-21.474 0.882-43.632 2.504-59.902 6.973-10.727 2.947-19.598 6.062-25.645 8.498-1.807 0.728-2.754 1.224-4.001 1.791v0.724l-6.021 2.515c-58.112 24.046-118.412 10.729-164.006-6.44-30.564 23.764-74.387 45.781-115.993 61.159 12.996 29.598 5.994 64.295-20.196 84.442l-0.191 0.152-70.038 48.623c-15.096 11.612-33.782 15.145-51.557 12.079zM337.463 939.325c12.953 2.299 26.429-0.028 36.696-7.926l0.191-0.114 70.038-48.661c21.454-16.503 26.363-45.648 11.394-68.933l-6.707-10.403 11.698-4.077c43.93-15.28 94.209-40.556 123.881-64.665l4.42-3.62 5.297 2.096c43.442 16.999 100.867 29.539 153.679 8.116 0.027-0.011 0.049-0.027 0.076-0.039 0.951-0.621 1.792-1.117 2.82-1.638 2.108-1.071 4.822-2.247 8.231-3.62 6.817-2.746 16.352-6.11 27.817-9.26 22.931-6.3 53.597-11.883 85.394-9.831l16.843 1.105-28.77 43.173c-14.855 23.107-9.943 53.951 12.651 68.476h0.039l72.553 47.061c22.916 16.369 53.417 9.854 68.056-12.918l0.076-0.076 226.27-337.5c14.828-23.104 9.894-53.882-12.689-68.399l-0.039-0.039-74.496-49.003c-22.89-16.35-53.322-9.83-67.98 12.88l-13.299 26.636-6.402-25.607c-3.577-14.309-10.811-30.735-23.892-49.423l-4.154-5.944 4.458-5.678c18.923-24.084 18.863-54.248 3.429-78.345-13.327-19.948-39.019-30.316-62.645-26.941l-11.127 1.6v-11.279c0-13.939-3.191-25.003-11.813-37.115-10.3-13.692-25.347-23.893-46.374-27.398l-9.641-1.6 1.6-9.603c3.57-21.418-0.115-40.036-9.869-53.043l-0.152-0.191-0.152-0.229c-13.319-19.978-39.077-30.356-62.722-26.979l-11.127 1.6v-11.279c0-13.169-5.17-27.247-12.003-37.496-20.452-30.678-60.863-37.285-89.662-16.957l-0.115 0.076-23.092 15.395-3.544-13.070c-5.372-19.699-11.832-23.657-22.177-40.163-22.404-34.468-68.873-43.093-103.571-20.539l-0.457 0.305-3.277 1.638c-19.102 14.037-31.136 34.987-32.809 55.062l-0.953 11.432-11.165-2.782c-7.433-1.858-16.799-3.62-22.978-3.62-13.955 0-29.643 3.675-41.078 11.813l-0.039 0.039c-19.274 14.036-31.358 34.864-33.076 57.196l-0.876 11.508-11.203-2.782c-7.804-1.951-14.523-3.62-22.978-3.62-13.982 0-29.714 3.679-41.154 11.851-19.259 14.037-31.319 34.836-33.037 57.159l-0.914 11.927-11.47-3.277c-24.954-7.13-46.993-3.628-66.227 8.612l-0.076 0.039h-0.039c-36.204 22.412-44.781 70.755-22.368 105.323 0.016 0.025 0.021 0.053 0.039 0.076l48.013 69.808-7.278 5.64c-16.967 13.196-40.225 34.509-63.446 57.73l-6.897 6.897-6.897-6.897c-10.556-10.556-21.379-16.652-36.048-16.652-9.538 0-21.473 3.582-28.998 9.603l-0.152 0.076-68.59 50.948c-23.095 16.495-27.903 47.138-11.355 70.304l274.894 376.253c8.134 10.559 20.552 17.479 33.495 19.777zM341.883 922.216c-7.868-1.124-14.93-5.592-20.12-12.079l-0.152-0.191-274.931-378.311c-5.339-6.673-7.792-14.957-6.668-22.825s5.592-14.968 12.079-20.158l0.152-0.115 68.361-50.794c13.007-9.755 31.879-6.050 42.754 7.545l0.114 0.191 274.969 376.367c11.074 13.842 8.526 34.743-6.478 43.745l-67.218 49.956c-6.673 5.339-14.995 7.792-22.863 6.668zM344.665 902.896c2.375 0.339 4.806-0.126 7.888-2.591l0.115-0.114 69.238-51.366c4.506-2.704 5.83-9.117 1.296-14.785l-0.115-0.152-274.969-376.406c-0.011-0.013-0.027 0.013-0.038 0-4.738-5.876-13.142-6.062-15.738-4.115h-0.038l-68.018 50.528c-0.030 0.023-0.008 0.053-0.038 0.076-3.202 2.591-4.618 5.231-4.954 7.583-0.339 2.375 0.164 4.806 2.629 7.888l0.114 0.191 275.008 378.349c2.598 3.226 5.259 4.578 7.62 4.915zM982.627 865.439c-7.42 1.541-15.49 0.286-22.254-3.772l-0.152-0.115-73.963-48.661c-14.183-8.51-17.338-27.169-9.222-40.697l0.115-0.191 224.251-337.348c0.006-0.010 0.033 0.010 0.039 0 8.518-14.158 27.141-17.294 40.659-9.183l0.191 0.115 74.801 49.233c11.55 8.662 16.747 24.379 11.012 38.715l-0.381 0.991-226.651 337.957c-4.255 7.092-11.023 11.415-18.443 12.956zM970.433 844.938c5.983 3.59 10.713 2.812 13.908-2.515l0.152-0.191 225.394-336.204c1.877-5.156-0.522-12.579-4.496-15.585l-73.315-48.242c-5.983-3.59-10.751-2.812-13.947 2.515l-0.115 0.191-224.251 337.387c-3.557 5.96-2.797 10.683 2.515 13.87l0.191 0.115zM435.089 783.017l-243.189-332.318 5.411-5.906c21.842-23.828 45.485-45.517 63.636-59.635l8.193-6.364 31.361 45.842c22.264 34.252 70.869 42.99 105.438 20.577 31.334-20.921 41.56-58.809 29.379-91.872l-4.839-13.147h14.023c16.114 0 31.657-3.679 43.097-11.851l0.115-0.076 0.152-0.076c31.094-20.73 43.14-62.607 27.779-95.035l-6.592-13.908h15.433c3.577 0 7.251 0.424 14.404-0.838s16.507-4.197 27.017-11.203l0.039-0.039 0.076-0.039c23.858-15.337 36.105-44.922 32.656-72.515l-1.486-12.156 12.156 1.219c34.183 3.418 71.153-19.442 81.393-53.576l0.953-3.163 37.953-27.399c31.222-21.614 71.866 2.523 71.866 37.27 0 9.43-2.65 17.951-7.507 24.883s-11.42 12.273-19.167 17.567c-15.495 10.588-36.345 21.419-63.065 41.459l0.229-0.191c-5.373 4.298-9.453 6.653-11.813 8.155s-2.578 1.599-3.696 3.277c-1.127 1.691-1.127 8.941 0 10.631l0.115 0.191 0.115 0.229c3.196 5.327 7.964 6.066 13.947 2.477l8.879-5.297c0.064-0.045 0.117-0.053 0.152-0.076l0.152-0.115c0.003-0.002 0.033 0.003 0.039 0 0.016-0.011 0.021-0.025 0.039-0.039 0.016-0.011 0.059-0.064 0.076-0.076 0.005-0.004 0.033 0.004 0.039 0l0.381-0.229c0.387-0.263 0.759-0.537 1.486-1.029 1.923-1.3 4.991-3.398 8.879-6.021 7.776-5.245 18.823-12.696 30.408-20.501 23.171-15.61 48.458-32.61 54.415-36.581 21.86-14.573 49.504-7.247 63.941 12.003l0.419 0.533 0.305 0.572c11.926 21.475 7.136 48.623-12.426 63.295l-0.115 0.076-107.19 76.020c-3.253 2.44-4.192 8.064-1.296 13.718 2.741 3.112 8.118 4.724 13.832 1.296l106.734-75.716c11.753-8.227 24.864-10.393 36.2-7.697s20.767 9.808 27.131 18.9c6.365 9.092 9.807 20.396 8.459 31.97-1.347 11.564-7.891 23.097-19.624 31.323l-118.775 83.756c-1.301 0.975-2.814 3.503-3.239 6.478s0.32 5.863 1.296 7.164l0.304 0.457c1.041 1.561 5.214 2.922 8.726 3.163 1.257-0.407 2.919-1.084 3.658-1.296 1.471-0.42 1.247-0.79-0.076 0.533l0.61-0.61 143.544-100.256c20.007-12.505 47.097-7.406 61.769 12.156 15.14 20.186 9.843 50.037-12.156 64.703l-2.478 1.64h-0.381c-2.932 2.29-9.472 7.549-25.912 20.958-34.377 28.038-108.992 89.048-270.93 220.745l0.724-0.686c-7.351 7.351-17.379 9.64-27.55 6.249l-0.152-0.039-0.191-0.076c-25.901-9.713-38.407-26.328-54.415-39.363s-36.126-24.534-81.469-28.312l-0.039-0.039c-31.948-2.738-56.929 5.96-72.934 20.043-15.923 14.012-23.231 33.198-19.967 54.262 5.489 23.551 19.025 55.080 65.084 79.031l1.334 0.686 1.067 1.067c1.603 1.603 11.656 8.25 25.226 16.004l13.986 7.966-13.527 8.688c-28.282 18.181-69.671 37.834-113.173 53.652zM441.796 759.124c33.97-12.791 64.024-27.659 88.176-41.764-4.283-2.689-10.183-5.811-13.070-8.536-50.086-26.635-67.915-64.474-74.115-91.339l-0.076-0.343-0.039-0.305c-4.413-27.583 5.754-54.178 26.331-72.286s51.191-27.959 87.528-24.845c48.275 4.030 74.010 17.894 92.139 32.656 18.062 14.707 28.023 28.225 48.775 36.086 1.66 0.418 6.987-1.080 7.431-1.524l0.343-0.343 0.381-0.343c161.928-131.688 236.572-192.616 270.968-220.669 17.198-14.027 24.216-19.773 27.474-22.292 0.815-0.63 1.363-1.021 2.058-1.486 0.302-0.202 0.68-0.462 1.257-0.762 12.347-8.907 14.904-25.194 6.821-35.972-8.732-11.643-24.574-14.296-35.781-7.316h-0.039l-141.981 99.227 1.296-1.105c-3.275 3.275-6.402 3.865-8.345 4.42s-3.137 0.902-3.925 1.296l-2.058 1.029h-2.324c-7.939 0-18.721-2.249-25.416-12.003-4.706-6.448-5.977-14.137-4.954-21.301 1.040-7.267 4.358-14.48 10.862-19.358l0.115-0.076 119.156-84.023c7.757-5.43 10.745-11.414 11.47-17.643s-1.19-12.979-5.068-18.519c-3.878-5.54-9.561-9.638-15.661-11.089s-12.744-0.705-20.501 4.725l-107.877 76.478c-13.527 8.116-31.032 5.734-40.163-6.44l-0.305-0.381-0.267-0.457c-8.117-13.527-5.735-30.994 6.439-40.124l0.115-0.076 107.229-76.058c11.426-8.604 14.27-23.988 7.164-37.458-9.033-11.483-23.904-15.73-36.924-7.050-5.749 3.833-31.173 20.937-54.338 36.543-11.583 7.803-22.599 15.259-30.37 20.501-3.885 2.621-6.968 4.691-8.879 5.983-0.955 0.646-1.631 1.083-1.943 1.296-0.035 0.023-0.051 0.021-0.076 0.039-0.018 0.012-0.021 0.027-0.039 0.039 0.010-0.007-0.025 0.029-0.039 0.039-0.053 0.035-0.107 0.084-0.152 0.115 0.009-0.006 0-0.039 0-0.039s-1.74-2.554-2.82-4.115l2.667 4.23-9.755 5.868c-13.461 8.077-31.939 4.899-40.506-9.107-6.513-9.969-6.546-22.075 0.076-32.009 2.783-4.175 6.445-7.004 9.45-8.917s5.716-3.43 10.098-6.935l0.152-0.115 0.115-0.076c27.909-20.931 49.98-32.544 63.75-41.954 6.885-4.705 11.51-8.754 14.213-12.613s3.963-7.54 3.963-13.718c0-19.868-21.738-34.717-41.23-21.263l-33.418 24.121c-13.68 38.381-51.495 62.706-90.805 62.76 0.464 31.498-12.258 63.233-39.896 81.050-12.87 8.561-24.962 12.477-34.371 14.137-2.968 0.524-3.107 0.17-5.601 0.343 11.499 38.914-2.742 82.768-37.763 106.276l-0.076 0.039c-12.673 9.029-27.74 12.6-42.945 14.023 8.987 38.183-3.91 79.681-39.172 103.19h-0.039l-0.039 0.039c-43.435 28.233-103.983 17.506-132.455-26.178-0.020-0.031-0.057-0.045-0.076-0.076l-18.824-27.55c-14.362 11.797-31.108 27.194-47.822 44.85zM669.667 732.984c-22.764-2.31-44.551-8.904-63.446-16.462s-35.038-16.188-46.603-22.939c-5.782-3.376-10.426-6.309-13.642-8.345-1.175-0.744-1.916-1.203-2.667-1.677h-1.41l-4.801-4.801 2.286 1.715c-30.814-16.434-51.292-38.632-55.748-67.599l-0.039-0.152v-0.115c-2.416-19.331 8.531-34.853 23.092-42.716s32.566-10.287 49.613-9.222h0.152l0.115 0.039c44.316 4.029 63.62 16.543 77.583 29.989 13.947 13.43 22.166 25.743 53.462 36.81 14.045 4.651 32.59 1.416 45.574-8.307 0.009-0.007 0.029 0.007 0.039 0l288.916-240.788 6.021 9.031c28.939 43.409 22.958 79.281 20.958 89.281l-0.381 1.905-1.105 1.6c-197.048 294.595-128.667 193.037-144.344 216.553l-3.544 5.297-6.249-1.105c-37.078-6.489-74.893-1.392-103.799 5.716-14.453 3.554-26.682 7.614-35.476 10.86s-14.858 6.038-14.671 5.944l-0.61 0.304c-22.789 9.54-46.511 11.493-69.276 9.183zM671.343 713.436c20.279 2.080 40.935 0.36 60.092-7.659 2.275-1.117 7.015-3.222 16.042-6.554 9.374-3.46 22.272-7.708 37.572-11.47 28.854-7.095 66.46-11.703 104.981-6.287 11.851-17.814-46.207 68.419 140.038-210.037 1.802-9.029 2.703-31.704-13.908-62.645l-271.235 226.003c-18.209 13.657-42.505 18.221-63.56 11.203h-0.076l-0.076-0.039c-34.95-12.335-48.212-29.275-60.588-41.192-12.359-11.901-24.3-20.794-65.694-24.578-14.12-0.856-29.194 1.574-38.982 6.859-9.772 5.277-14.366 11.223-12.956 22.978 3.388 21.693 17.916 38.482 45.574 53.233l1.296 0.686 1.981 1.981c0.242 0.144 0.501 0.296 0.762 0.457 0.994 0.616 2.241 1.407 3.811 2.401 3.14 1.988 7.535 4.755 13.032 7.964 10.994 6.418 26.325 14.607 44.012 21.682s37.603 12.934 57.882 15.014zM352.896 439.915c-14.336-2.951-27.32-11.171-35.629-24.197-0.010-0.016-0.027-0.021-0.039-0.039l-91.683-132.683c-16.491-25.915-9.456-61.235 16.652-77.849 26.141-16.635 62.952-9.811 79.793 16.652l91.453 132.302c17.036 24.337 9.58 59.364-15.89 77.888l-0.838 0.533c-13.758 8.025-29.468 10.347-43.821 7.392zM357.088 420.939c9.388 1.891 19.778 0.185 29.303-5.22 17.022-12.777 21.265-35.875 11.089-50.414l-0.039-0.039-91.911-132.988c-10.474-16.458-36.071-21.348-52.852-10.67-16.802 10.692-21.465 33.867-10.67 50.871 0.007 0.011-0.007 0.027 0 0.039l91.682 132.683c5.35 8.407 13.85 13.814 23.397 15.738zM1007.319 358.103c-0.524-0.444-0.857-0.706-1.638-1.372 0.741 0.664 1.489 1.335 1.486 1.334 0 0 0.14 0.033 0.152 0.039zM432.879 320.874c-14.353-2.954-27.321-11.181-35.629-24.235l-60.512-87.795c-16.491-25.915-9.456-61.235 16.652-77.849 26.116-16.619 62.892-9.786 79.755 16.614l60.55 87.833c16.491 25.915 9.456 61.235-16.652 77.849l-0.152 0.115-0.191 0.115c-13.758 8.024-29.467 10.307-43.821 7.353zM437.071 301.935c9.485 1.911 20.004 0.285 29.608-5.259 16.663-10.741 21.313-33.772 10.555-50.718-0.007-0.011 0.007-0.027 0-0.039l-60.473-87.795c-10.474-16.458-36.109-21.348-52.89-10.67-16.802 10.692-21.465 33.905-10.67 50.909 0.007 0.011-0.007 0.027 0 0.039l60.512 87.795c5.35 8.407 13.812 13.814 23.359 15.738zM518.007 199.584c-14.396-2.057-28.594-10.502-38.715-25.683l0.305 0.457-29.494-39.325-0.191-0.305c-16.465-25.873-9.43-61.088 16.576-77.735 12.431-8.579 27.866-10.154 42.259-7.050 14.488 3.125 28.331 10.881 38.601 22.292l0.381 0.457 0.343 0.457c13.882 19.832 7.678 13.487 27.055 38.677l0.229 0.305 0.191 0.305c9.674 14.795 11.59 30.923 7.659 44.736s-13.182 25.292-24.845 32.923c-11.662 7.631-25.958 11.545-40.354 9.488zM520.75 180.265c9.077 1.297 18.811-1.222 26.902-6.516s14.333-13.226 16.805-21.911c2.471-8.685 1.689-18.164-5.22-28.732-18.189-23.699-14.37-20.402-26.56-37.915-7.285-8.034-17.713-13.928-28.046-16.157-10.387-2.24-20.208-0.849-27.245 4.077l-0.152 0.115-0.191 0.115c-16.791 10.684-21.436 33.83-10.669 50.831l29.15 38.906c7.438 11.157 16.149 15.889 25.226 17.186zM616.128 104.968c-11.622-0.187-22.948-6.37-33.495-14.556-0.374 0.013-0.952 0.039-0.953 0.039s-2.017-0.532-2.020-0.533c-0.006-0.002-1.551-0.731-1.943-0.991s-0.638-0.445-0.838-0.61c-0.4-0.329-0.588-0.55-0.762-0.724l13.794-13.794c-0.113-0.113-0.29-0.239-0.648-0.533-0.179-0.146-0.386-0.361-0.762-0.61s-1.873-0.955-1.867-0.953c0.003 0.001-2.060-0.534-2.058-0.533s-3.508 0.115-3.506 0.115c0.002 0-4.422 2.249-4.42 2.248s-2.554 3.66-2.553 3.658c0.001-0.002-0.648 2.784-0.648 2.782s0 1.68 0 1.677c-0.001-0.007 0.202 1.343 0.305 1.715 0.825 2.976 0.764 1.859 0.724 1.791-0.080-0.137-0.597-0.938-1.257-1.943-1.321-2.010-3.398-5.027-5.563-8.155s-4.451-6.408-6.287-8.955c-0.918-1.273-1.737-2.348-2.324-3.125s-1.401-1.63-0.495-0.724l-0.762-0.762-0.572-0.914c-16.347-25.689-9.101-59.518 16.652-75.906l0.419-0.267 4.344-2.172-0.648 0.381c24.43-14.658 58.563-7.699 75.449 16.423l13.68 19.51c9.24 13.282 11.589 28.226 8.536 41.344s-11.094 24.402-21.606 32.466c-10.512 8.064-24.034 12.837-37.915 12.613zM617.005 85.954c9.104 0.020 17.897-3.476 25.188-9.069s12.557-13.317 14.442-21.415c1.885-8.098 0.805-16.605-5.563-25.759h0.039l-13.68-19.51c-10.428-14.897-34.795-19.614-49.385-10.86l-0.343 0.191-3.429 1.677c-17.074 10.935-21.51 31.659-10.593 48.851 0.007 0.012-0.008 0.025 0 0.039 0.229 0.308 0.651 0.706 0.953 1.105 0.738 0.976 1.581 2.157 2.553 3.506 1.944 2.697 4.292 6.008 6.516 9.222s4.346 6.316 5.83 8.574c0.407 0.619 0.673 1.059 0.991 1.562 8.418 8.162 17.583 11.869 26.483 11.889z" />
<glyph unicode="&#xe90d;" glyph-name="collaboration_world" horiz-adv-x="896" d="M8.134 755.047c0.005-6.527 3.912-12.42 9.923-14.965l81.333-34.485v-173.891c0-53.192 39.528-97.6 113.867-127.043 7.645-2.928 16.267-5.856 23.749-8.459v-29.931c-0.353-56.475 5.097-112.837 16.267-168.198-116.632 34.323-196.339 97.6-196.339 168.198 0.001 39.827 6.034 79.425 17.893 117.445-5.831 15.603-8.753 32.143-8.621 48.8v17.893c-135.073-280.789 69.546-606.272 381.128-606.272s516.202 325.483 381.128 606.272v-17.893c0.156-16.673-2.824-33.227-8.784-48.8 11.991-37.994 18.081-77.604 18.056-117.445 0-70.597-79.707-133.875-195.2-168.198 11.169 55.361 16.62 111.723 16.267 168.198v30.419c80.357 26.515 137.941 70.923 137.941 135.013v173.891l81.333 34.485c13.189 5.618 13.189 24.312 0 29.931l-422.934 180.56c-4.055 1.717-8.633 1.717-12.688 0l-422.934-180.56c-6.587-2.067-11.151-8.066-11.387-14.965zM71.736 260.051c41.48-43.269 108.011-78.080 189.995-99.227 20.333-74.664 51.565-135.013 89.792-173.078-135.042 34.569-241.57 138.248-279.787 272.304zM268.401 366.273v20.659c58.574-14.182 118.668-21.12 178.934-20.659 60.281-0.4 120.381 6.648 178.934 20.984v-20.984c0.146-59.8-6.677-119.413-20.333-177.632-104.436-23.424-212.764-23.424-317.2 0-13.656 58.22-20.48 117.833-20.333 177.632zM447.334-24.128c-61.163 0-116.307 71.085-148.678 176.656 48.988-9.474 98.782-14.159 148.678-13.989 49.896-0.17 99.689 4.515 148.678 13.989-32.371-105.571-87.515-176.656-148.678-176.656zM822.932 260.051c-38.217-134.056-144.745-237.735-279.787-272.304 38.227 38.064 69.459 98.413 89.792 173.078 81.984 21.147 148.515 55.957 189.995 99.227zM763.396 531.705c0-48.8-51.077-85.563-123.952-107.523-1.891-0.119-3.729-0.675-5.368-1.627-60.896-16.277-123.71-24.266-186.742-23.749-157.136 0-316.062 45.709-316.062 132.899v159.902l309.067-132.085c4.055-1.717 8.633-1.717 12.688 0l309.067 132.085zM447.334 917.876l381.454-162.667-381.454-163.155-381.454 162.992zM439.264 958.069l-422.171-180.3c-9.852-3.092-16.74-12.111-17.093-22.43v-0.286c0.008-9.769 5.874-18.652 14.869-22.462l76.377-32.375v-168.513c0-57.221 42.989-104.503 119.014-134.613h0.033l0.063-0.033c6.071-2.325 12.422-4.495 18.522-6.608v-24.177c-0.323-52.218 4.859-104.276 14.297-155.614-51.577 16.606-95.882 38.408-126.575 64.145-33.322 27.941-51.533 59.231-51.533 91.468 0.001 39.006 5.923 77.774 17.538 115.011l0.826 2.669-0.985 2.605c-5.483 14.672-8.226 30.246-8.102 45.909v17.951l-15.472 3.526c-137.529-285.893 71.215-617.943 388.462-617.943s525.991 332.051 388.462 617.943l-15.472-3.527v-17.983c0.146-15.654-2.633-31.193-8.229-45.814l-1.017-2.637 0.858-2.701c11.741-37.2 17.689-76 17.665-115.010 0-32.238-18.221-63.527-51.405-91.468-30.539-25.715-74.529-47.515-125.558-64.114 9.434 51.328 14.62 103.374 14.297 155.582v25.035c38.376 13.266 72.047 30.404 96.456 52.803 25.675 23.561 41.493 53.111 41.493 87.592v168.513l76.377 32.375c9.587 4.084 14.837 13.443 14.837 22.462s-5.25 18.346-14.837 22.43l-422.934 180.586c-6.079 2.575-12.951 2.575-19.031 0zM445.619 943.073c2.031 0.86 4.324 0.86 6.354 0l422.902-180.554c3.602-1.534 4.956-4.329 4.956-7.466s-1.354-5.964-4.956-7.498l-86.258-36.568v-179.283c0-29.609-13.013-54.32-36.219-75.615s-56.694-38.644-96.139-51.659l-5.592-1.843v-36.378c0.35-55.918-5.049-111.697-16.108-166.511l-2.669-13.28 12.963 3.876c58.565 17.405 108.285 42.129 143.827 72.056s57.188 65.564 57.188 103.923c0.024 40.009-6.135 79.759-17.982 117.965 3.109 8.77 3.599 18.079 4.924 27.259 100.444-266.917-92.483-559.231-385.476-559.231-292.948 0-485.844 292.22-385.508 559.104 1.309-9.151 1.756-18.437 4.797-27.196-11.708-38.212-17.822-77.928-17.823-117.902 0-38.36 21.656-73.995 57.346-103.923s85.71-54.686 144.843-72.088l12.931-3.781-2.669 13.217c-11.059 54.814-16.458 110.593-16.108 166.511v35.775l-5.465 1.905c-7.496 2.607-16.007 5.49-23.415 8.324l-0.096 0.033c-72.585 28.774-108.656 70.319-108.656 119.458v179.282l-86.289 36.568c-2.964 1.255-4.781 4.136-4.861 7.339 0.187 3.403 2.327 6.346 5.592 7.371l0.381 0.096zM447.334 926.711l-3.209-1.366-398.947-170.292 402.156-171.849 402.156 172.007zM447.367 909.015l360.726-153.835-360.758-154.279-360.758 154.121zM123.144 703.934v-172.23c0-24.268 11.293-45.801 29.801-63.446s44.195-31.883 74.566-43.304c60.743-22.841 140.466-34.281 219.823-34.281 63.742-0.516 127.264 7.558 188.846 24.019l1.048 0.286 0.921 0.54c0.546 0.317 1.18 0.501 1.811 0.54l0.921 0.063 0.921 0.286c37.135 11.19 68.988 26.155 92.104 45.21s37.617 42.849 37.617 70.087v0.065l-1.398 172.101-320.282-136.869c-2.031-0.86-4.292-0.86-6.322 0zM754.050 679.343l1.207-147.703c-0.021-21.536-11.054-40.474-31.676-57.474-20.642-17.016-50.741-31.422-86.48-42.192l1.843 0.318c-3.152-0.197-6.228-1.114-8.959-2.701l2.002 0.826c-60.19-16.088-122.288-23.989-184.589-23.479h-0.064c-77.779 0-156.1 11.421-214.104 33.232-29.002 10.906-52.868 24.426-69.070 39.872s-24.75 32.333-24.75 51.659v147.576l297.757-127.242c6.079-2.575 12.951-2.575 19.031 0zM634.401 397.631l-10.071-2.478c-57.902-14.177-117.321-21.142-176.932-20.746h-0.127c-59.6-0.457-119.036 6.403-176.964 20.429l-10.040 2.446v-31.008c-0.146-60.421 6.758-120.681 20.556-179.505l1.144-4.956 4.988-1.112c105.608-23.687 215.151-23.687 320.759 0l4.988 1.112 1.144 4.956c13.801 58.835 20.704 119.106 20.556 179.537zM618.134 377.552v-11.311c0.142-57.391-6.477-114.561-19.19-170.514-99.941-21.642-203.28-21.642-303.221 0-12.712 55.954-19.33 113.124-19.19 170.515v10.993c56.070-12.764 113.338-19.535 170.864-19.094 57.491-0.371 114.732 6.519 170.737 19.412zM77.617 265.686l-13.693-7.879c39.006-136.825 147.757-242.648 285.588-277.932l28.88-7.403-21.128 21.032c-36.75 36.594-67.617 95.767-87.688 169.466l-1.239 4.543-4.575 1.176c-80.924 20.873-146.164 55.29-186.146 96.996zM817.052 265.686c-39.982-41.706-105.221-76.123-186.146-96.996l-4.575-1.176-1.239-4.543c-20.070-73.699-50.937-132.872-87.688-169.466l-21.128-21.032 28.88 7.403c137.832 35.283 246.582 141.107 285.588 277.932zM93.184 230.802c41.25-32.691 96.687-58.803 162.254-76.25 17.315-61.765 43.186-111.047 73.708-149.101-109.086 36.131-194.727 118.387-235.962 225.351zM801.484 230.802c-41.236-106.964-126.876-189.22-235.962-225.351 30.523 38.054 56.394 87.336 73.708 149.101 65.567 17.447 121.004 43.559 162.254 76.25zM286.923 163.098l3.971-12.963c16.415-53.534 38.598-98.572 65.035-130.705s57.672-51.691 91.405-51.691c33.732 0 64.968 19.558 91.405 51.691s48.62 77.172 65.035 130.705l3.971 12.963-13.28-2.573c-48.47-9.374-97.731-14.020-147.099-13.852h-0.064c-49.368-0.168-98.629 4.478-147.099 13.852zM311.005 143.241c45.063-7.877 90.597-12.991 136.361-12.835 45.743-0.151 91.255 4.962 136.297 12.835-15.475-46.407-34.972-86.103-57.474-113.454-24.519-29.802-51.425-45.782-78.855-45.782s-54.337 15.98-78.855 45.782c-22.502 27.351-41.999 67.046-57.474 113.454z" />
<glyph unicode="&#xe90e;" glyph-name="opensource_icon" horiz-adv-x="1044" d="M525.386 959.989c-257.78 1.666-478.445-185.458-518.9-440.050-39.759-250.217 106.728-491.561 344.911-574.164 2.762-4.201 6.854-7.332 11.667-8.818l0.152-0.040c1.859-0.582 3.997-0.917 6.212-0.917 9.652 0 17.819 6.363 20.533 15.123l0.041 0.152 106.588 352.553c1.2 1.685 2.188 3.632 2.866 5.718l0.043 0.152c0.643 1.95 1.015 4.194 1.015 6.525 0 9.532-6.206 17.615-14.798 20.429l-0.152 0.043c-49.43 15.763-79.721 64.92-71.579 116.16s52.168 88.599 104.050 88.264c51.882-0.335 95.433-38.245 102.913-89.586s-23.43-100.112-73.060-115.235c-8.895-2.766-15.242-10.923-15.242-20.563 0-2.239 0.342-4.398 0.978-6.428l-0.041 0.152c0.855-2.72 2.137-5.078 3.787-7.128l-0.032 0.041 109.232-350.12c2.809-8.823 10.932-15.103 20.52-15.103 2.294 0 4.504 0.359 6.576 1.025l-0.152-0.042c1.906 0.613 3.56 1.402 5.083 2.378l-0.086-0.051c243.944 76.745 396.968 319.295 360.036 572.815-37.161 255.093-255.382 445.047-513.162 446.713zM525.095 917.021c236.85-1.53 436.764-175.578 470.907-409.958 33.142-227.506-100.373-443.826-315.401-519.534l-99.343 318.416c56.527 27.854 91.566 87.724 82.235 151.778-10.497 72.053-72.355 125.896-145.167 126.367s-135.38-52.578-146.807-124.489c-10.199-64.184 24.365-124.754 80.939-153.179l-95.668-316.459c-213.525 78.75-343.871 296.48-307.839 523.236 37.17 233.92 239.293 405.354 476.143 403.824z" />
<glyph unicode="&#xe90f;" glyph-name="image" d="M959.884 832c0.040-0.034 0.082-0.076 0.116-0.116v-767.77c-0.034-0.040-0.076-0.082-0.116-0.116h-895.77c-0.040 0.034-0.082 0.076-0.114 0.116v767.772c0.034 0.040 0.076 0.082 0.114 0.114h895.77zM960 896h-896c-35.2 0-64-28.8-64-64v-768c0-35.2 28.8-64 64-64h896c35.2 0 64 28.8 64 64v768c0 35.2-28.8 64-64 64v0zM832 672c0-53.020-42.98-96-96-96s-96 42.98-96 96 42.98 96 96 96 96-42.98 96-96zM896 128h-768v128l224 384 256-320h64l224 192z" />
<glyph unicode="&#xe910;" glyph-name="github" horiz-adv-x="1050" d="M524.909 960c-289.879 0-524.909-235.030-524.909-524.973 0-231.936 150.402-428.68 359.005-498.129 26.265-4.801 35.836 11.408 35.836 25.33 0 12.439-0.457 45.472-0.731 89.268-146.020-31.711-176.828 70.383-176.828 70.383-23.88 60.618-58.299 76.764-58.299 76.764-47.663 32.581 3.608 31.937 3.608 31.937 52.691-3.738 80.406-54.109 80.406-54.109 46.826-80.212 122.881-57.041 152.787-43.635 4.769 33.935 18.305 57.073 33.323 70.19-116.564 13.245-239.122 58.298-239.122 259.457 0 57.299 20.464 104.157 54.043 140.863-5.417 13.277-23.429 66.645 5.125 138.929 0 0 44.086 14.115 144.375-53.819 41.863 11.634 86.787 17.467 131.421 17.66 44.569-0.192 89.493-6.026 131.421-17.66 100.224 67.934 144.215 53.819 144.215 53.819 28.65-72.284 10.634-125.652 5.216-138.929 33.645-36.706 53.98-83.564 53.98-140.863 0-201.675-122.752-246.051-239.702-259.038 18.852-16.21 35.643-48.244 35.643-97.228 0-70.158-0.639-126.78-0.639-143.989 0-14.051 9.442-30.39 36.094-25.266 208.443 69.577 358.716 266.193 358.716 498.064 0 289.944-235.062 524.973-525.005 524.973z" />
<glyph unicode="&#xe911;" glyph-name="fracture1" d="M741.376 881.152c-71.168-18.944-110.080-96.256-83.456-165.376 8.704-23.040 8.704-23.552-1.536-31.744-5.632-4.608-39.424-32.256-75.264-61.952-54.272-45.568-64-55.808-62.976-66.56 1.536-12.288 2.56-12.8 38.912-12.288 23.040 0 36.864-2.048 36.864-5.12s-3.584-16.384-7.68-30.208c-12.8-43.008-5.12-47.104 73.728-41.984l54.272 3.584 40.96 34.304 40.96 34.816 23.040-12.288c19.968-10.752 28.672-12.288 64.512-10.752 34.816 1.536 44.544 3.584 62.976 15.872 77.312 51.2 72.192 171.008-8.704 215.040-13.824 7.68-29.184 13.824-33.792 13.824-5.632 0-8.192 4.608-8.192 16.896 0 25.6-24.064 68.608-47.104 85.504-10.752 8.192-31.744 16.896-45.568 19.968-30.72 6.656-31.232 6.656-61.952-1.536zM814.592 839.168c16.896-8.704 39.424-34.816 43.008-49.664 1.536-6.144 3.072-21.504 3.584-34.304 1.536-23.040 1.536-23.040 25.088-28.672 30.72-7.68 41.984-13.824 57.856-32.768 18.432-22.016 25.6-51.2 18.432-76.8-6.144-23.552-26.112-48.64-46.592-58.88-28.672-14.848-77.824-7.168-96.256 14.848-13.312 15.872-30.72 9.216-76.288-29.184-44.032-37.888-44.544-37.888-81.408-41.472-20.48-2.048-37.376-2.048-37.376 0s3.584 17.408 8.192 33.28c10.752 37.888 7.68 44.544-17.92 46.592l-20.48 1.536 58.368 48.64c37.376 30.208 58.88 51.712 58.88 57.856 0 5.12-5.12 16.896-11.264 25.088-14.336 20.48-17.92 58.88-7.68 78.848 25.088 48.128 77.824 67.584 121.856 45.056zM470.528 499.712c-44.032-4.096-30.72 4.608-167.936-109.056-53.76-44.544-63.488-50.176-70.144-39.424-6.656 11.264-46.080 25.088-71.168 25.088-47.104 0-99.328-34.304-117.248-77.824-27.136-65.024 13.824-154.112 76.288-165.888 15.872-2.56 16.896-4.608 18.944-28.672 3.584-32.256 24.064-62.464 57.344-83.456 20.48-12.288 31.744-15.36 61.44-16.896 32.256-1.536 39.424 0 64.512 12.8 50.176 26.112 74.752 85.504 59.392 144.384l-7.168 27.136 123.904 102.4c67.584 56.32 126.464 106.496 130.048 111.104 3.584 5.12 4.608 13.312 3.072 18.432-3.584 8.192-8.704 8.704-52.224 6.144-36.864-2.56-47.616-2.048-45.568 3.072 7.68 21.504 14.848 59.904 12.288 67.072-3.584 8.704-8.192 9.216-75.776 3.584zM496.128 432.64c-9.216-30.72-8.704-45.568 2.56-46.592 3.072-0.512 17.408-0.512 31.232 0.512 16.384 0.512 23.552-1.024 20.48-4.096-2.56-2.56-53.248-44.032-111.616-92.672-58.368-48.128-107.52-91.136-109.056-94.72s2.56-15.36 8.704-26.112c13.824-23.040 14.848-59.392 3.072-82.432-27.648-53.248-94.72-64.512-138.24-23.552-21.504 19.968-26.112 30.72-29.184 64.512l-2.56 30.208-24.576 6.144c-80.896 20.48-102.4 109.568-38.4 156.16 37.376 27.136 71.168 26.624 104.96-2.56 11.776-9.728 25.088-17.92 30.72-17.92 5.12 0 53.248 36.864 106.496 81.92l97.28 81.408h28.672l29.184 0.512-9.728-30.72z" />
<glyph unicode="&#xe912;" glyph-name="operation1" d="M841 955c-3.6-3.6-5-7-5-13 0-7.2 1.4-9.4 14-22.8l14.2-14.8-22.6-22c-12.4-12-42.4-40.8-66.6-64l-44-42.2-40.2 40.2c-37 36.8-40.8 40-47.2 40-9.4 0-14.6-3-17.6-10.2-3.8-9.4-1-15.8 15-32.2l14.8-15.2-214-213.8c-118.6-118.6-215.4-216.8-216.8-220.2-1.6-3.4-2.2-8.4-1.6-11s9.2-13 19.2-23.2l18-18.2-19.4-20c-17.4-18-19.2-20.4-19.2-27.4 0-6.8 1.8-9.2 17-24.8l17-17.4-17-16.8-17-17 31-31 17 16.8 17 17 17.4-17c16.2-15.6 18-16.8 25.6-16.8s9.6 1.2 27.8 19l19.4 18.8 17.6-17.6c18.8-19 24.2-21.6 34.2-17.2 3.2 1.4 102.2 99 220 216.8l213.8 214 15.2-14.8c8.4-8 17.8-15.4 20.6-16 12.2-3.2 25 9 22 21.2-0.6 2.6-20.2 24-43.8 47.8l-42.8 43 55.4 53c30.4 29.2 60.4 57.8 67 63.8l11.6 10.6 15-14.2c13.6-12.8 15.8-14.2 23-14.2 11.4 0 18 6.8 18 18.4v8.6l-80.6 80.4-80.4 80.6h-8.6c-6.4 0-9.8-1.2-13.4-5zM918 805.4c-12.6-12.4-42.6-41.2-66.6-64.2l-43.6-42-25 25c-13.6 13.6-24.6 25.4-24.4 26 0.4 0.8 30.4 29.8 66.6 64.6l66 63.2 25-25.2 25-25-23-22.4zM628.6 411.6l-207.6-207.6-153 153 41 41 20.4-20.4c16.8-16.8 21.4-20.2 26.4-20.2 8 0 14.2 5.6 14.2 13.2 0 4.8-3.8 9.8-20.4 26.8l-20.4 20.8 46.8 46.8 40.6-40.6c22.4-22.2 42.2-40.4 44.2-40.4 4.2 0 11.6 3.8 13.6 6.8 0.8 1.2 1.6 4.8 1.6 8 0 5-6 12-40 46.2l-40 40.2 36 35.6 20.6-20.4c17-16.6 22-20.4 26.8-20.4 7.6 0 13.2 6.2 13.2 14.2 0 5-3.4 9.6-20.2 26.4l-20.4 20.4 47 47 40-40c34.4-34.4 40.8-40 46-40 3.2 0 7 0.8 8.2 1.6 4 2.6 7 10.6 5.8 15-0.8 2.4-19 22.2-40.6 43.8l-39.4 39.6 36 36 20-20c17.6-17.4 21-20 26.8-20 8.8 0 14.2 5 14.2 12.8 0 5.2-3.4 9.6-20.4 26.6l-20.6 20.6 23.6 23.4 23.4 23.6 39.4-39.4c21.8-21.6 41.6-39.8 44-40.6 4.4-1.2 12.4 1.8 15 5.8 0.8 1.2 1.6 5 1.6 8.2 0 5.2-5.6 11.6-40 46l-40 40 41 41 153-153-207.4-207.4zM339.6 212.6l-10.6-10.6-63 63 21 21 63-63-10.4-10.4zM114.8 63.6c-81.2-81.6-109-110.8-111.8-117.2-2-4.6-3.2-9-2.4-9.6 0.6-0.6 5.4 0.8 10.8 3.2 7.8 3.4 30 24.6 117.2 111.6 59 59 107.4 108.4 107.4 109.6 0 2.6-8.4 10.8-11.2 10.8-1 0-50.6-48.8-110-108.4z" />
<glyph unicode="&#xe913;" glyph-name="operation2" d="M662.642 953.628c-24.576-9.102-38.684-20.48-55.068-43.236-10.923-15.474-13.653-24.576-15.019-49.607-1.365-20.48 0.455-36.409 4.551-46.421 15.019-35.044 46.876-60.53 84.651-66.446l17.749-2.731-349.525-393.671c-192.512-216.178-349.98-395.947-349.98-399.132 0-7.282 9.102-16.384 16.839-16.384 3.186 0 182.5 157.468 398.677 349.98l393.671 349.98 2.731-18.204c8.647-54.613 50.062-90.112 105.131-90.112 61.44 0 104.676 43.236 104.22 104.676-0.455 45.966-23.666 81.465-64.171 98.759-23.666 9.557-65.081 7.737-86.926-4.096-10.468-5.916-97.394-80.555-193.877-166.116-96.484-86.016-176.128-156.103-177.038-156.103-4.551 0 24.121 91.932 31.858 101.49 4.551 5.916 62.35 71.452 128.796 145.636 66.446 74.638 125.156 143.815 131.072 154.283 11.833 21.845 13.653 63.26 4.096 86.926-21.39 50.517-83.285 78.734-132.437 60.53zM739.556 912.668c20.935-15.929 29.582-33.678 29.582-59.62s-8.647-43.691-30.492-60.075c-21.845-16.384-61.44-18.204-81.92-3.186-40.96 30.492-45.511 85.561-9.557 118.784 24.576 23.211 64.626 25.031 92.388 4.096zM956.188 694.67c22.3-14.564 37.319-45.511 34.133-70.997-9.102-68.722-94.208-87.836-136.533-30.948-7.282 9.557-9.557 19.57-9.557 39.595 0 30.037 8.192 45.056 34.133 62.805 20.935 14.108 56.434 14.108 77.824-0.455zM486.969 424.334c-7.282-24.121-16.839-47.332-21.39-51.428-9.557-9.102-210.716-187.051-231.196-204.345l-13.653-11.833 11.833 13.653c40.050 45.966 264.42 298.098 265.785 298.098 0.455 0-4.551-19.57-11.378-44.146z" />
<glyph unicode="&#xe914;" glyph-name="video-camera" d="M384 672c0 88.366 71.634 160 160 160s160-71.634 160-160c0-88.366-71.634-160-160-160s-160 71.634-160 160zM0 672c0 88.366 71.634 160 160 160s160-71.634 160-160c0-88.366-71.634-160-160-160s-160 71.634-160 160zM768 352v96c0 35.2-28.8 64-64 64h-640c-35.2 0-64-28.8-64-64v-320c0-35.2 28.8-64 64-64h640c35.2 0 64 28.8 64 64v96l256-160v448l-256-160zM640 192h-512v192h512v-192z" />
<glyph unicode="&#xe915;" glyph-name="bruise" d="M659.911 954.084c-11.833-3.186-28.217-10.468-36.409-15.474-8.647-5.461-148.366-142.905-309.931-304.924-329.045-329.956-311.751-309.020-310.841-374.556 0.455-55.524 6.827-64.626 126.521-185.685 89.202-90.112 109.682-108.316 134.713-120.604 24.576-12.288 34.588-14.564 61.44-14.564 63.26 0 44.146-16.384 374.556 313.572 334.507 333.596 321.764 318.578 321.764 382.748-0.455 58.254-10.012 71.908-135.623 196.608-77.824 76.914-111.502 106.951-127.431 114.688-27.307 12.288-71.452 15.929-98.759 8.192zM740.011 903.111c15.929-8.192 50.972-40.050 122.88-112.412 81.92-82.375 101.945-105.586 108.772-123.335 9.557-25.941 7.282-60.53-6.372-81.92-5.006-8.192-139.719-144.725-299.463-304.469-309.931-309.020-299.008-299.463-343.154-299.463-33.223 0-56.889 17.749-161.564 123.79-81.92 82.375-101.945 105.586-108.772 123.335-9.557 25.941-7.282 60.53 6.372 81.92 5.006 8.192 139.719 145.18 299.463 304.469 227.556 227.1 294.002 290.816 306.29 294.002 27.762 8.192 51.428 5.916 75.548-5.916zM698.596 812.089c-13.653-13.198-14.564-29.127-2.731-43.691 10.468-12.743 37.774-14.564 49.152-2.731 11.833 11.378 10.012 38.684-2.731 49.152-14.564 11.833-30.492 10.923-43.691-2.731zM633.515 747.918c-14.108-9.557-14.108-39.595 0-49.152 23.211-16.384 53.703-2.276 53.703 24.576s-30.492 40.96-53.703 24.576zM764.587 746.098c-5.006-5.006-9.102-15.019-9.102-22.756s4.096-17.749 9.102-22.756c5.006-5.006 15.019-9.102 22.756-9.102s17.749 4.096 22.756 9.102c5.006 5.006 9.102 15.019 9.102 22.756s-4.096 17.749-9.102 22.756c-5.006 5.006-15.019 9.102-22.756 9.102s-17.749-4.096-22.756-9.102zM392.306 567.239c-85.561-85.561-132.892-136.078-132.892-141.995 0-12.288 217.543-229.831 229.831-229.831 5.916 0 56.889 47.787 142.905 133.803 116.053 116.053 133.348 135.168 131.072 144.27-4.096 15.019-217.543 227.1-228.921 227.1-5.461 0-57.799-49.152-141.995-133.348zM599.836 360.619l-110.592-110.592-175.218 175.218 220.729 220.729 175.218-175.218-110.137-110.137zM706.788 686.933c-21.39-8.647-25.486-35.499-8.192-52.338 21.39-21.845 54.158-8.647 54.158 22.3 0 9.102-3.186 19.57-6.372 22.756-9.102 9.102-27.307 12.288-39.595 7.282zM838.315 686.933c-10.012-4.096-19.115-20.935-19.115-34.588 0-10.923 21.39-29.127 34.133-29.127 15.019 0 34.133 18.66 34.133 33.223 0 23.211-26.852 39.595-49.152 30.492zM764.587 614.116c-10.923-10.923-11.833-30.492-1.82-44.601 5.006-7.282 11.378-10.012 24.576-10.012s19.57 2.731 24.576 10.012c16.384 23.211 2.276 53.703-24.576 53.703-7.737 0-17.749-4.096-22.756-9.102zM212.537 328.306c-10.468-11.378-9.557-35.499 1.365-46.421 20.48-20.48 54.613-5.006 54.613 24.121 0 9.102-3.641 18.66-8.192 22.756-11.378 10.468-38.684 10.012-47.787-0.455zM147.911 261.404c-21.845-21.39-8.647-54.158 22.3-54.158 21.39 0 31.858 10.468 31.858 31.858 0 30.948-32.768 44.146-54.158 22.3zM281.714 264.135c-12.743-10.468-14.564-37.774-2.731-49.152 11.378-11.833 38.684-10.012 49.152 2.731 11.833 14.564 10.923 30.492-2.731 43.691-13.198 13.653-29.127 14.564-43.691 2.731zM213.902 195.413c-19.57-19.57-5.006-54.613 22.756-54.613 7.737 0 17.749 4.096 22.756 9.102s9.102 15.019 9.102 22.756c0 7.737-4.096 17.749-9.102 22.756s-15.019 9.102-22.756 9.102c-7.737 0-17.749-4.096-22.756-9.102zM345.884 195.413c-19.115-19.115-5.461-54.613 21.845-54.613 20.935 0 32.768 11.378 32.768 31.858 0 13.198-2.731 19.57-10.012 24.576-14.108 10.012-33.678 9.102-44.601-1.82zM287.63 136.249c-30.492-12.743-17.749-63.716 16.384-63.716 13.653 0 32.768 19.57 32.768 33.223 0 23.211-26.852 39.595-49.152 30.492z" />
<glyph unicode="&#xe91e;" glyph-name="mic" d="M480 256c88.366 0 160 71.634 160 160v384c0 88.366-71.634 160-160 160s-160-71.634-160-160v-384c0-88.366 71.636-160 160-160zM704 512v-96c0-123.71-100.29-224-224-224-123.712 0-224 100.29-224 224v96h-64v-96c0-148.238 112.004-270.3 256-286.22v-129.78h-128v-64h320v64h-128v129.78c143.994 15.92 256 137.982 256 286.22v96h-64z" />
<glyph unicode="&#xe91f;" glyph-name="book" d="M896 832v-832h-672c-53.026 0-96 42.98-96 96s42.974 96 96 96h608v768h-640c-70.398 0-128-57.6-128-128v-768c0-70.4 57.602-128 128-128h768v896h-64zM224.056 128v0c-0.018-0.002-0.038 0-0.056 0-17.672 0-32-14.326-32-32s14.328-32 32-32c0.018 0 0.038 0.002 0.056 0.002v-0.002h607.89v64h-607.89z" />
<glyph unicode="&#xe920;" glyph-name="books" horiz-adv-x="1152" d="M224 832h-192c-17.6 0-32-14.4-32-32v-704c0-17.6 14.4-32 32-32h192c17.6 0 32 14.4 32 32v704c0 17.6-14.4 32-32 32zM192 640h-128v64h128v-64zM544 832h-192c-17.6 0-32-14.4-32-32v-704c0-17.6 14.4-32 32-32h192c17.6 0 32 14.4 32 32v704c0 17.6-14.4 32-32 32zM512 640h-128v64h128v-64zM765.088 782.52l-171.464-86.394c-15.716-7.918-22.096-27.258-14.178-42.976l287.978-571.548c7.918-15.718 27.258-22.098 42.976-14.178l171.464 86.392c15.716 7.92 22.096 27.26 14.178 42.974l-287.978 571.55c-7.92 15.718-27.26 22.1-42.976 14.18z" />
<glyph unicode="&#xe922;" glyph-name="file-text" d="M864 960h-768c-52.8 0-96-43.2-96-96v-832c0-52.8 43.2-96 96-96h768c52.8 0 96 43.2 96 96v832c0 52.8-43.2 96-96 96zM832 64h-704v768h704v-768zM256 512h448v-64h-448zM256 384h448v-64h-448zM256 256h448v-64h-448zM256 640h448v-64h-448z" />
<glyph unicode="&#xe926;" glyph-name="file-text2" d="M917.806 730.924c-22.212 30.292-53.174 65.7-87.178 99.704s-69.412 64.964-99.704 87.178c-51.574 37.82-76.592 42.194-90.924 42.194h-496c-44.112 0-80-35.888-80-80v-864c0-44.112 35.888-80 80-80h736c44.112 0 80 35.888 80 80v624c0 14.332-4.372 39.35-42.194 90.924zM785.374 785.374c30.7-30.7 54.8-58.398 72.58-81.374h-153.954v153.946c22.984-17.78 50.678-41.878 81.374-72.572zM896 16c0-8.672-7.328-16-16-16h-736c-8.672 0-16 7.328-16 16v864c0 8.672 7.328 16 16 16 0 0 495.956 0.002 496 0v-224c0-17.672 14.326-32 32-32h224v-624zM736 128h-448c-17.672 0-32 14.326-32 32s14.328 32 32 32h448c17.674 0 32-14.326 32-32s-14.326-32-32-32zM736 256h-448c-17.672 0-32 14.326-32 32s14.328 32 32 32h448c17.674 0 32-14.326 32-32s-14.326-32-32-32zM736 384h-448c-17.672 0-32 14.326-32 32s14.328 32 32 32h448c17.674 0 32-14.326 32-32s-14.326-32-32-32z" />
<glyph unicode="&#xe927;" glyph-name="file-picture" d="M832 64h-640v128l192 320 263-320 185 128v-256zM832 480c0-53.020-42.98-96-96-96-53.022 0-96 42.98-96 96s42.978 96 96 96c53.020 0 96-42.98 96-96zM917.806 730.924c-22.212 30.292-53.174 65.7-87.178 99.704s-69.412 64.964-99.704 87.178c-51.574 37.82-76.592 42.194-90.924 42.194h-496c-44.112 0-80-35.888-80-80v-864c0-44.112 35.888-80 80-80h736c44.112 0 80 35.888 80 80v624c0 14.332-4.372 39.35-42.194 90.924zM785.374 785.374c30.7-30.7 54.8-58.398 72.58-81.374h-153.954v153.946c22.984-17.78 50.678-41.878 81.374-72.572zM896 16c0-8.672-7.328-16-16-16h-736c-8.672 0-16 7.328-16 16v864c0 8.672 7.328 16 16 16 0 0 495.956 0.002 496 0v-224c0-17.672 14.326-32 32-32h224v-624z" />
<glyph unicode="&#xe928;" glyph-name="file-music" d="M917.806 730.924c-22.21 30.292-53.174 65.7-87.178 99.704s-69.412 64.964-99.704 87.178c-51.574 37.82-76.592 42.194-90.924 42.194h-496c-44.112 0-80-35.888-80-80v-864c0-44.112 35.886-80 80-80h736c44.112 0 80 35.888 80 80v624c0 14.332-4.372 39.35-42.194 90.924v0zM785.374 785.374c30.7-30.7 54.8-58.398 72.58-81.374h-153.954v153.946c22.982-17.78 50.678-41.878 81.374-72.572v0zM896 16c0-8.672-7.328-16-16-16h-736c-8.672 0-16 7.328-16 16v864c0 8.672 7.328 16 16 16 0 0 495.956 0.002 496 0v-224c0-17.672 14.324-32 32-32h224v-624zM756.288 568.748c-7.414 6.080-17.164 8.514-26.562 6.632l-320-64c-14.958-2.994-25.726-16.126-25.726-31.38v-236.876c-18.832 8.174-40.678 12.876-64 12.876-70.692 0-128-42.98-128-96s57.308-96 128-96 128 42.98 128 96v229.766l256 51.202v-133.842c-18.832 8.174-40.678 12.876-64 12.876-70.692 0-128-42.98-128-96s57.308-96 128-96 128 42.98 128 96v319.998c0 9.586-4.298 18.668-11.712 24.748z" />
<glyph unicode="&#xe929;" glyph-name="file-play" d="M384 576l320-224-320-224v448zM917.806 730.924c-22.212 30.292-53.174 65.7-87.178 99.704s-69.412 64.964-99.704 87.178c-51.574 37.82-76.592 42.194-90.924 42.194h-496c-44.112 0-80-35.888-80-80v-864c0-44.112 35.888-80 80-80h736c44.112 0 80 35.888 80 80v624c0 14.332-4.372 39.35-42.194 90.924zM785.374 785.374c30.7-30.7 54.8-58.398 72.58-81.374h-153.954v153.946c22.984-17.78 50.678-41.878 81.374-72.572zM896 16c0-8.672-7.328-16-16-16h-736c-8.672 0-16 7.328-16 16v864c0 8.672 7.328 16 16 16 0 0 495.956 0.002 496 0v-224c0-17.672 14.326-32 32-32h224v-624z" />
<glyph unicode="&#xe92a;" glyph-name="file-video" d="M917.806 730.924c-22.208 30.292-53.174 65.7-87.178 99.704s-69.412 64.964-99.704 87.178c-51.574 37.82-76.594 42.194-90.924 42.194h-496c-44.112 0-80-35.888-80-80v-864c0-44.112 35.882-80 80-80h736c44.112 0 80 35.888 80 80v624c0 14.332-4.372 39.35-42.194 90.924v0 0zM785.374 785.374c30.7-30.7 54.8-58.398 72.58-81.374h-153.954v153.946c22.98-17.78 50.678-41.878 81.374-72.572v0 0zM896 16c0-8.672-7.328-16-16-16h-736c-8.672 0-16 7.328-16 16v864c0 8.672 7.328 16 16 16 0 0 495.956 0.002 496 0v-224c0-17.672 14.32-32 32-32h224v-624zM256 448h320v-320h-320v320zM576 320l192 128v-320l-192 128z" />
<glyph unicode="&#xe92c;" glyph-name="copy" d="M640 704v256h-448l-192-192v-576h384v-256h640v768h-384zM192 869.49v-101.49h-101.49l101.49 101.49zM64 256v448h192v192h320v-192l-192-192v-256h-320zM576 613.49v-101.49h-101.49l101.49 101.49zM960 0h-512v448h192v192h320v-640z" />
<glyph unicode="&#xe92d;" glyph-name="paste" d="M704 832h-128v64c0 35.2-28.8 64-64 64h-128c-35.204 0-64-28.8-64-64v-64h-128v-128h512v128zM512 832h-128v63.886c0.034 0.038 0.072 0.078 0.114 0.114h127.768c0.042-0.036 0.082-0.076 0.118-0.114v-63.886zM832 640v160c0 17.6-14.4 32-32 32h-64v-64h32v-128h-192l-192-192v-256h-256v576h32v64h-64c-17.602 0-32-14.4-32-32v-640c0-17.6 14.398-32 32-32h288v-192h640v704h-192zM576 549.49v-101.49h-101.49l101.49 101.49zM960 0h-512v384h192v192h320v-576z" />
<glyph unicode="&#xe92f;" glyph-name="folder" d="M448 832l128-128h448v-704h-1024v832z" />
<glyph unicode="&#xe930;" glyph-name="folder-open" d="M832 0l192 512h-832l-192-512zM128 576l-128-576v832h288l128-128h416v-128z" />
<glyph unicode="&#xe93a;" glyph-name="cart" d="M384 32c0-53.019-42.981-96-96-96s-96 42.981-96 96c0 53.019 42.981 96 96 96s96-42.981 96-96zM1024 32c0-53.019-42.981-96-96-96s-96 42.981-96 96c0 53.019 42.981 96 96 96s96-42.981 96-96zM1024 448v384h-768c0 35.346-28.654 64-64 64h-192v-64h128l48.074-412.054c-29.294-23.458-48.074-59.5-48.074-99.946 0-70.696 57.308-128 128-128h768v64h-768c-35.346 0-64 28.654-64 64 0 0.218 0.014 0.436 0.016 0.656l831.984 127.344z" />
<glyph unicode="&#xe953;" glyph-name="calendar" d="M320 576h128v-128h-128zM512 576h128v-128h-128zM704 576h128v-128h-128zM128 192h128v-128h-128zM320 192h128v-128h-128zM512 192h128v-128h-128zM320 384h128v-128h-128zM512 384h128v-128h-128zM704 384h128v-128h-128zM128 384h128v-128h-128zM832 960v-64h-128v64h-448v-64h-128v64h-128v-1024h960v1024h-128zM896 0h-832v704h832v-704z" />
<glyph unicode="&#xe955;" glyph-name="keyboard" horiz-adv-x="1152" d="M1088 832h-1024c-35.2 0-64-28.8-64-64v-640c0-35.2 28.8-64 64-64h1024c35.2 0 64 28.8 64 64v640c0 35.2-28.8 64-64 64zM640 704h128v-128h-128v128zM832 512v-128h-128v128h128zM448 704h128v-128h-128v128zM640 512v-128h-128v128h128zM256 704h128v-128h-128v128zM448 512v-128h-128v128h128zM128 704h64v-128h-64v128zM128 512h128v-128h-128v128zM192 192h-64v128h64v-128zM768 192h-512v128h512v-128zM1024 192h-192v128h192v-128zM1024 384h-128v128h128v-128zM1024 576h-192v128h192v-128z" />
<glyph unicode="&#xe956;" glyph-name="display" d="M0 896v-640h1024v640h-1024zM960 320h-896v512h896v-512zM672 192h-320l-32-128-64-64h512l-64 64z" />
<glyph unicode="&#xe957;" glyph-name="laptop" d="M896 256v512c0 35.2-28.8 64-64 64h-640c-35.2 0-64-28.8-64-64v-512h-128v-192h1024v192h-128zM640 128h-256v64h256v-64zM832 256h-640v511.886c0.034 0.040 0.076 0.082 0.114 0.114h639.77c0.040-0.034 0.082-0.076 0.116-0.116v-511.884z" />
<glyph unicode="&#xe958;" glyph-name="mobile" d="M736 960h-448c-52.8 0-96-43.2-96-96v-832c0-52.8 43.2-96 96-96h448c52.8 0 96 43.2 96 96v832c0 52.8-43.2 96-96 96zM384 912h256v-32h-256v32zM512 0c-35.346 0-64 28.654-64 64s28.654 64 64 64 64-28.654 64-64-28.654-64-64-64zM768 192h-512v640h512v-640z" />
<glyph unicode="&#xe959;" glyph-name="mobile2" d="M768 960h-576c-35.2 0-64-28.798-64-64v-896c0-35.2 28.798-64 64-64h576c35.2 0 64 28.8 64 64v896c0 35.202-28.8 64-64 64zM480-17.782c-27.492 0-49.782 22.29-49.782 49.782s22.29 49.782 49.782 49.782 49.782-22.29 49.782-49.782-22.29-49.782-49.782-49.782zM768 128h-576v704h576v-704z" />
<glyph unicode="&#xe95a;" glyph-name="tablet" d="M800 960h-640c-52.8 0-96-43.2-96-96v-832c0-52.8 43.2-96 96-96h640c52.8 0 96 43.2 96 96v832c0 52.8-43.2 96-96 96zM480-32c-17.672 0-32 14.326-32 32s14.328 32 32 32 32-14.326 32-32-14.328-32-32-32zM768 64h-576v768h576v-768z" />
<glyph unicode="&#xe962;" glyph-name="floppy-disk" d="M896 960h-896v-1024h1024v896l-128 128zM512 832h128v-256h-128v256zM896 64h-768v768h64v-320h576v320h74.978l53.022-53.018v-714.982z" />
<glyph unicode="&#xe963;" glyph-name="drive" d="M192 64h640c106.038 0 192 85.96 192 192h-1024c0-106.040 85.962-192 192-192zM832 192h64v-64h-64v64zM960 832h-896l-64-512h1024z" />
<glyph unicode="&#xe964;" glyph-name="database" d="M512 960c-282.77 0-512-71.634-512-160v-128c0-88.366 229.23-160 512-160s512 71.634 512 160v128c0 88.366-229.23 160-512 160zM512 416c-282.77 0-512 71.634-512 160v-192c0-88.366 229.23-160 512-160s512 71.634 512 160v192c0-88.366-229.23-160-512-160zM512 128c-282.77 0-512 71.634-512 160v-192c0-88.366 229.23-160 512-160s512 71.634 512 160v192c0-88.366-229.23-160-512-160z" />
<glyph unicode="&#xe965;" glyph-name="undo" d="M512 896c-141.384 0-269.376-57.32-362.032-149.978l-149.968 149.978v-384h384l-143.532 143.522c69.496 69.492 165.492 112.478 271.532 112.478 212.068 0 384-171.924 384-384 0-114.696-50.292-217.636-130.018-288l84.666-96c106.302 93.816 173.352 231.076 173.352 384 0 282.77-229.23 512-512 512z" />
<glyph unicode="&#xe966;" glyph-name="redo" d="M0 384c0-152.924 67.048-290.184 173.35-384l84.666 96c-79.726 70.364-130.016 173.304-130.016 288 0 212.076 171.93 384 384 384 106.042 0 202.038-42.986 271.53-112.478l-143.53-143.522h384v384l-149.97-149.978c-92.654 92.658-220.644 149.978-362.030 149.978-282.77 0-512-229.23-512-512z" />
<glyph unicode="&#xe967;" glyph-name="undo2" d="M761.862-64c113.726 206.032 132.888 520.306-313.862 509.824v-253.824l-384 384 384 384v-248.372c534.962 13.942 594.57-472.214 313.862-775.628z" />
<glyph unicode="&#xe968;" glyph-name="redo2" d="M576 711.628v248.372l384-384-384-384v253.824c-446.75 10.482-427.588-303.792-313.86-509.824-280.712 303.414-221.1 789.57 313.86 775.628z" />
<glyph unicode="&#xe969;" glyph-name="forward" d="M262.14 960c-113.728-206.032-132.89-520.304 313.86-509.824v253.824l384-384-384-384v248.372c-534.96-13.942-594.572 472.214-313.86 775.628z" />
<glyph unicode="&#xe96a;" glyph-name="reply" d="M448 184.372v-248.372l-384 384 384 384v-253.824c446.75-10.48 427.588 303.792 313.862 509.824 280.71-303.414 221.1-789.57-313.862-775.628z" />
</font>
</defs>
</svg>
